<svg width="492" height="439" viewBox="0 0 492 439" fill="none" xmlns="http://www.w3.org/2000/svg">
<path d="M134.872 377.827C135.117 377.827 135.309 379.764 135.304 382.154C135.299 384.543 135.099 386.467 134.854 386.466C134.609 386.466 134.429 384.529 134.434 382.152C134.439 379.774 134.639 377.826 134.872 377.827Z" fill="#FAFAFA"/>
<path d="M133.377 377.639C133.61 377.639 133.802 379.576 133.797 381.953C133.792 384.331 133.592 386.279 133.359 386.278C133.126 386.278 132.922 384.341 132.927 381.951C132.932 379.562 133.132 377.638 133.377 377.639Z" fill="#FAFAFA"/>
<path d="M477.923 386.54C477.923 386.711 465.361 386.82 449.883 386.787C434.405 386.754 421.844 386.593 421.845 386.422C421.845 386.25 434.394 386.142 449.885 386.174C465.375 386.207 477.924 386.368 477.923 386.54Z" fill="#F5F5F5"/>
<path d="M212.183 31.708L179.058 31.6382L178.994 61.8223L212.12 61.8921L212.183 31.708Z" fill="#F5F5F5"/>
<path d="M212.107 61.8921C212.107 61.8921 212.107 61.6838 212.108 61.3161L212.112 59.674C212.115 58.2034 212.119 56.1323 212.051 53.5463C212.062 48.2276 211.992 40.7396 211.95 31.7321L212.231 32.0268L179.143 31.9571L179.474 31.6269L179.457 39.7274C179.452 42.3745 179.446 44.9726 179.441 47.5094C179.43 52.5707 179.42 57.3134 179.411 61.7987L179.105 61.5039L203.002 61.7014L209.779 61.8014L211.593 61.8053C211.805 61.7878 212.018 61.7882 212.23 61.8066C212.038 61.8239 211.845 61.8234 211.654 61.8054L209.901 61.8017L203.198 61.8611L179.104 61.9574L178.81 61.9568L178.811 61.6504C178.82 57.2263 178.83 52.4224 178.841 47.3611C178.846 44.8243 178.851 42.2262 178.857 39.5791L178.874 31.4786C178.567 31.772 179.279 31.0627 179.218 31.1361L212.307 31.2059L212.601 31.2065L212.6 31.4883C212.52 40.5692 212.455 48.1304 212.406 53.5471C212.401 56.1206 212.335 58.1671 212.32 59.6744C212.319 60.3198 212.318 60.8468 212.317 61.2553C212.276 61.4762 212.206 61.6904 212.107 61.8921Z" fill="#E0E0E0"/>
<path d="M212.11 66.6225L178.984 66.5527L178.952 81.7244L212.078 81.7942L212.11 66.6225Z" fill="#F5F5F5"/>
<path d="M212.065 81.7943C212.065 81.7943 212.066 81.4021 212.068 80.6913L212.013 77.6519C212.019 74.9681 211.953 71.2302 211.901 66.6221L212.146 66.8678L179.057 66.8961C178.75 67.2018 179.462 66.4803 179.389 66.5659L179.372 74.3723C179.367 76.9091 179.362 79.3724 179.357 81.7253L179.027 81.406L202.715 81.603L209.627 81.7156L211.49 81.7195L212.151 81.7209C211.956 81.7385 211.759 81.7381 211.563 81.7197L209.762 81.7159L202.935 81.7995L179.026 81.8962L178.707 81.8955L178.708 81.5769C178.713 79.224 178.718 76.7607 178.723 74.2239L178.74 66.4175C178.666 66.4173 179.378 65.7693 179.083 66.075L212.172 66.2306L212.331 66.2309L212.331 66.476C212.321 71.1452 212.215 74.944 212.184 77.6523C212.182 78.8778 212.18 79.895 212.178 80.6425C212.178 81.0292 212.14 81.4149 212.065 81.7943Z" fill="#E0E0E0"/>
<path d="M173.187 31.7117C160.823 48.7079 146.623 64.6341 134.27 81.6303L173.187 31.7117Z" fill="white"/>
<path d="M134.283 81.6304C134.283 81.6304 134.369 81.4223 134.602 81.0674L135.647 79.55C136.557 78.2283 137.921 76.3562 139.642 74.0681C143.071 69.4674 147.973 63.2522 153.478 56.4622C158.983 49.6723 163.934 43.5061 167.449 38.9914L171.615 33.6448L172.757 32.1888C173.028 31.8707 173.175 31.6995 173.2 31.7118C173.11 31.9113 172.999 32.1002 172.867 32.2748L171.823 33.7923C170.913 35.1139 169.549 36.986 167.828 39.2864C164.399 43.8748 159.496 50.09 153.992 56.88C148.487 63.67 143.548 69.8361 140.021 74.3508L135.855 79.7097L134.713 81.1534C134.588 81.3286 134.444 81.4887 134.283 81.6304Z" fill="#E0E0E0"/>
<path d="M228.955 16.743C228.952 17.9743 228.585 19.1772 227.899 20.1995C227.212 21.2219 226.238 22.0177 225.1 22.4865C223.961 22.9553 222.709 23.076 221.502 22.8332C220.295 22.5905 219.187 21.9952 218.318 21.1227C217.449 20.2502 216.859 19.1397 216.621 17.9316C216.383 16.7234 216.509 15.4719 216.983 14.3353C217.456 13.1988 218.256 12.2281 219.282 11.5462C220.307 10.8643 221.511 10.5017 222.743 10.5043C224.393 10.511 225.973 11.1713 227.137 12.3406C228.302 13.5099 228.955 15.0929 228.955 16.743Z" fill="#E0E0E0"/>
<path d="M145.255 15.6353C125.521 46.5257 126.717 89.4212 148.15 119.16C162.434 138.995 183.89 152.325 200.912 169.836C217.934 187.348 230.846 213.172 221.79 235.874C212.575 258.98 185.704 268.323 165.575 282.938C143.366 299.042 128.261 323.126 123.433 350.131C118.604 377.136 124.428 404.961 139.681 427.763L348.532 428.203C348.532 428.203 385.371 358.366 338.313 304.969C291.256 251.572 265.927 250.661 267.74 215.713C269.554 180.765 294.039 169.481 308.05 156.398C322.061 143.314 390.251 112.906 350.27 16.0551L145.255 15.6353Z" fill="#263238"/>
<path d="M145.255 15.6357L148.846 15.6433L159.434 15.6656L200.195 15.7515L350.271 15.9575L350.43 15.9578L350.43 16.1048C353.49 23.4382 356.094 30.9541 358.225 38.6094C360.464 46.6245 361.932 54.8349 362.61 63.1289C363.315 71.7987 362.851 80.5238 361.232 89.0701C359.454 97.9289 356.249 106.44 351.742 114.271C349.407 118.265 346.769 122.074 343.851 125.664C340.872 129.302 337.651 132.735 334.209 135.938C330.723 139.2 327.072 142.28 323.27 145.168C319.465 148.101 315.488 150.862 311.609 153.795C309.67 155.249 307.926 156.888 306.036 158.526C304.145 160.164 302.267 161.692 300.327 163.232C296.46 166.312 292.557 169.343 288.873 172.755C281.185 179.39 275.271 187.835 271.664 197.327C269.93 202.196 268.832 207.268 268.397 212.418C268.284 213.644 268.11 214.991 268.058 216.29C268.006 217.589 267.954 218.888 268.05 220.187C268.072 222.796 268.329 225.397 268.818 227.959C269.778 233.15 271.887 238.062 274.988 242.335C278.18 246.607 281.798 250.544 285.785 254.086C293.699 261.345 302.103 268.287 310.139 275.78C318.175 283.272 326.038 291.083 333.619 299.347C337.487 303.437 341.104 307.758 344.45 312.286C347.816 316.871 350.74 321.764 353.182 326.901C358.119 337.311 361.143 348.526 362.107 360.008C363.082 371.649 362.372 383.37 359.999 394.808C358.846 400.587 357.336 406.29 355.478 411.882C353.652 417.522 351.429 423.026 348.826 428.352L348.739 428.523L139.509 428.082L139.423 427.947C129.66 413.18 123.689 396.233 122.039 378.608C120.377 361.678 122.896 344.598 129.374 328.868C135.532 313.832 144.993 300.373 157.056 289.489C162.91 284.344 169.229 279.754 175.933 275.779C182.461 271.748 189.05 268.012 195.272 263.932C201.5 260.057 207.223 255.426 212.311 250.144C217.171 244.956 220.781 238.727 222.865 231.931C224.693 225.3 224.992 218.34 223.741 211.577C222.546 205.05 220.382 198.738 217.322 192.85C214.395 187.18 210.882 181.833 206.841 176.896C202.94 172.159 198.697 167.714 194.148 163.597C185.329 155.441 176.288 148.302 168.166 140.968C164.092 137.283 160.24 133.598 156.682 129.829C153.233 126.138 150.055 122.204 147.172 118.056C141.96 110.449 137.948 102.088 135.275 93.2632C132.934 85.6424 131.583 77.7519 131.256 69.7861C131.088 67.972 131.166 66.1829 131.169 64.4305C131.173 62.678 131.177 60.9745 131.339 59.3204C131.502 57.6664 131.591 56.0489 131.717 54.4192C131.843 52.7895 132.177 51.3319 132.389 49.8494C133.762 40.8252 136.543 32.0724 140.63 23.9105C141.184 22.6477 141.817 21.4211 142.525 20.2379L144.038 17.6798C144.837 16.3212 145.268 15.6358 145.268 15.6358L144.038 17.7166L142.574 20.238C141.883 21.4265 141.258 22.6526 140.703 23.9106C136.653 32.0924 133.906 40.8567 132.56 49.8866C132.349 51.3568 132.101 52.8759 131.914 54.4319C131.726 55.9879 131.662 57.6177 131.536 59.2718C131.41 60.926 131.406 62.6295 131.39 64.3697C131.374 66.1099 131.321 67.899 131.489 69.7131C131.827 77.6525 133.19 85.5148 135.545 93.1044C138.215 101.897 142.224 110.227 147.43 117.799C150.305 121.929 153.48 125.844 156.927 129.51C160.473 133.292 164.326 136.977 168.399 140.564C176.521 147.934 185.526 155 194.406 163.168C198.991 167.316 203.266 171.794 207.197 176.566C211.261 181.539 214.794 186.923 217.739 192.63C220.828 198.554 223.013 204.908 224.219 211.48C225.488 218.316 225.188 225.351 223.342 232.054C221.249 238.929 217.605 245.232 212.691 250.476C207.577 255.788 201.83 260.452 195.578 264.361C189.331 268.454 182.742 272.19 176.226 276.22C169.551 280.185 163.256 284.758 157.423 289.882C145.434 300.71 136.028 314.092 129.901 329.04C123.462 344.691 120.964 361.682 122.628 378.524C124.278 396.048 130.219 412.897 139.926 427.58L139.682 427.445L348.532 427.885L348.25 428.056C350.849 422.744 353.064 417.253 354.878 411.624C356.726 406.055 358.228 400.377 359.375 394.623C361.737 383.241 362.443 371.578 361.47 359.995C360.525 348.575 357.521 337.421 352.605 327.071C350.18 321.972 347.282 317.112 343.947 312.555C340.609 308.05 337.009 303.746 333.165 299.664C325.625 291.421 317.811 283.578 309.722 276.134C301.698 268.654 293.318 261.724 285.38 254.428C281.361 250.857 277.711 246.891 274.485 242.591C271.323 238.266 269.161 233.293 268.156 228.031C267.67 225.431 267.409 222.794 267.376 220.149C267.317 218.838 267.381 217.527 267.384 216.215C267.387 214.904 267.61 213.605 267.711 212.307C268.172 207.126 269.294 202.025 271.052 197.13C274.69 187.554 280.66 179.036 288.42 172.35C292.104 168.95 296.044 165.87 299.911 162.803C301.851 161.262 303.754 159.71 305.607 158.121C307.461 156.532 309.291 154.82 311.206 153.353C315.109 150.42 319.073 147.659 322.866 144.738C326.657 141.863 330.3 138.799 333.781 135.557C337.2 132.368 340.405 128.957 343.373 125.344C346.268 121.767 348.894 117.979 351.228 114.013C355.71 106.236 358.898 97.7826 360.668 88.9831C362.28 80.5063 362.748 71.8515 362.058 63.2503C361.391 54.9576 359.935 46.7474 357.71 38.7309C355.609 31.0545 353.038 23.5144 350.013 16.153L350.221 16.2882L200.231 15.8619L159.446 15.7759L148.834 15.7536L145.255 15.6357Z" fill="#263238"/>
<path d="M341.817 72.7784C372.567 77.9046 323.959 132.288 296.45 153.726C280.492 166.131 263.429 179.6 255.84 198.31C247.217 219.542 253.527 243.429 249.34 264.793C249.205 265.53 248.796 266.188 248.196 266.636C247.595 267.084 246.848 267.288 246.103 267.207C245.359 267.126 244.672 266.767 244.182 266.201C243.691 265.635 243.433 264.904 243.459 264.155C243.685 250.124 243.346 236.103 241.096 222.287C237.841 202.672 230.357 183.305 216.698 168.926C205.51 157.174 190.832 149.361 178.907 138.38C161.489 122.35 143.603 101.687 141.901 78.0803C141.901 78.0803 175.463 51.1897 194.059 54.5991C215.791 58.6278 237.118 92.215 270.803 88.4501C294.24 85.8157 306.155 66.8453 341.817 72.7784Z" fill="url(#paint0_linear)"/>
<path d="M343.936 364.394C343.18 356.696 341.14 347.991 334.321 344.349C330.196 342.134 325.159 342.369 320.622 343.548C316.085 344.727 311.828 346.789 307.34 348.115C298.418 350.719 288.896 350.394 280.172 347.188C271.833 344.107 264.688 338.577 256.915 334.173C249.142 329.769 240.117 326.54 231.485 328.666C216.599 332.311 208.816 350.236 194.101 354.531C187.553 356.429 180.533 355.336 173.894 353.827C167.255 352.318 160.58 350.355 153.778 350.598C148.434 350.783 142.879 352.622 139.133 356.266L139.035 356.376C138.412 356.984 137.844 357.648 137.34 358.358C132.768 364.476 132.015 372.599 133.409 380.029C134.96 388.353 138.829 396.046 142.98 403.42C147.864 412.107 153.434 420.746 161.535 426.547C171.544 433.713 184.141 428.813 196.406 429.807C224.992 432.122 255.749 433.719 284.357 431.573C299.47 430.38 313.621 432.101 325.626 422.849C334.072 416.347 339.582 406.53 342.251 396.217C344.92 385.904 344.98 374.997 343.936 364.394Z" fill="url(#paint1_linear)"/>
<g opacity="0.24">
<path opacity="0.24" d="M289.996 349.55C288.385 351.997 287.68 355.329 289.231 357.832C290.782 360.336 292.897 362.632 293.553 365.513C294.61 370.025 291.88 374.431 289.849 378.606C286.09 386.07 284.66 394.49 285.742 402.777C286.883 411.09 291.159 418.653 297.695 423.917C300.594 426.166 304.365 427.914 307.873 426.819C311.171 425.796 313.298 422.455 314.016 419.062C314.734 415.669 314.141 412.175 313.72 408.755C311.757 392.815 312.204 376.671 315.046 360.865C315.517 358.231 315.965 355.217 314.302 353.118C313.103 351.895 311.578 351.041 309.908 350.658C303.54 348.524 296.66 350.863 290.057 349.599" fill="black"/>
</g>
<path d="M124.33 437.217C124.33 437.217 123.774 427.632 136.286 422.315L355.958 422.778C355.958 422.778 367.404 428.611 368.795 437.511L124.33 437.217Z" fill="#263238"/>
<path d="M352.143 17.2358L351.787 17.3943L145.231 15.6355C145.231 15.6355 144.496 15.1683 143.408 14.2959C142.122 13.2844 141.185 11.8958 140.729 10.3249C140.273 8.75407 140.321 7.0798 140.865 5.53715C141.408 3.99451 142.422 2.66093 143.762 1.72361C145.103 0.786292 146.703 0.292289 148.339 0.310938L348.829 2.35108C357.076 2.44199 359.65 13.7221 352.143 17.2358Z" fill="#263238"/>
<g opacity="0.24">
<path opacity="0.24" d="M318.887 95.9659C319.302 96.7633 317.742 98.4144 314.783 101.104C311.824 103.794 307.417 107.327 301.942 111.764C295.368 117.172 288.393 122.073 281.077 126.426C276.533 129.044 271.752 131.229 266.799 132.952C264.114 133.874 261.374 134.625 258.595 135.202C255.676 135.816 252.712 136.195 249.733 136.335C243.694 136.651 237.651 135.806 231.931 133.847C226.874 131.996 222.07 129.515 217.633 126.464C213.521 123.734 209.985 121.031 206.62 118.438C203.256 115.845 200.258 113.351 197.543 110.992C186.717 101.57 181.02 94.6459 182.126 93.3124C183.232 91.979 190.943 96.3458 202.938 103.724L212.729 109.75C216.242 111.889 219.999 114.263 223.843 116.452C227.657 118.702 231.699 120.538 235.902 121.931C240.204 123.229 244.697 123.769 249.184 123.528C258.596 123.057 267.733 119.768 275.646 115.961C283.558 112.154 290.725 107.708 296.933 104.241C301.847 101.355 306.983 98.8662 312.292 96.7975C316.18 95.4454 318.533 95.193 318.887 95.9659Z" fill="black"/>
</g>
<path d="M243.551 290.381C244.42 290.038 245.389 290.05 246.249 290.416C247.109 290.782 247.79 291.472 248.145 292.336C248.5 293.201 248.501 294.17 248.146 295.035C247.791 295.9 247.111 296.59 246.251 296.956C245.391 297.322 244.422 297.335 243.553 296.992C242.683 296.649 241.984 295.977 241.607 295.122C241.229 294.268 241.204 293.298 241.535 292.425C241.867 291.551 242.529 290.843 243.379 290.455" fill="url(#paint2_linear)"/>
<path d="M170.015 129.831C169.747 129.61 169.501 129.363 169.281 129.094L167.288 126.909C166.445 125.939 165.332 124.809 164.195 123.373L160.308 118.462C158.977 116.572 157.473 114.535 155.959 112.326L153.723 108.755C153.345 108.141 152.942 107.528 152.575 106.877L151.501 104.89C148.252 99.1027 145.71 92.9462 143.929 86.5525C142.14 80.1641 141.182 73.5718 141.078 66.9384C141.082 65.4065 141.171 63.9239 141.198 62.4656C141.2 61.7425 141.201 61.0317 141.301 60.3334C141.4 59.6351 141.451 58.9489 141.526 58.275C141.688 56.9273 141.789 55.6162 141.975 54.3666C142.162 53.117 142.421 51.9165 142.632 50.8018C142.98 48.5108 143.597 46.5145 144.03 44.6772C144.265 43.7953 144.45 42.9624 144.685 42.2275L145.363 40.1824L146.312 37.378C146.403 37.0441 146.527 36.72 146.682 36.4106C146.631 36.7523 146.548 37.0886 146.435 37.415C146.225 38.1253 145.953 39.0684 145.596 40.2564L144.978 42.3017C144.769 43.0488 144.595 43.8818 144.373 44.7514C143.977 46.5276 143.397 48.5362 143.134 50.8763C142.936 52.0034 142.737 53.1917 142.526 54.429C142.315 55.6663 142.264 56.9653 142.114 58.313C142.112 58.9871 141.976 59.6608 141.901 60.3592C141.826 61.0576 141.898 61.7685 141.823 62.4791C141.82 63.9252 141.719 65.3956 141.728 66.9153C141.834 73.5097 142.78 80.0637 144.542 86.419C146.313 92.7657 148.822 98.883 152.016 104.646C152.37 105.308 152.724 105.971 153.066 106.633C153.408 107.296 153.836 107.86 154.202 108.498L156.4 112.069C157.891 114.327 159.369 116.365 160.664 118.206L164.478 123.116C165.577 124.577 166.666 125.719 167.472 126.725L169.379 128.996C169.609 129.261 169.821 129.54 170.015 129.831Z" fill="#263238"/>
<path d="M158.002 311.867C158.062 311.726 158.137 311.591 158.223 311.463L158.961 310.313C159.293 309.799 159.698 309.187 160.19 308.453L160.965 307.229C161.272 306.825 161.628 306.421 161.985 306.005L164.442 303.069C165.388 302.054 166.468 301.002 167.61 299.853C170.258 297.314 173.072 294.954 176.032 292.787C182.55 287.899 190.955 283.015 200.06 277.286C204.848 274.35 209.451 271.122 213.843 267.621C218.555 263.884 222.718 259.504 226.211 254.608C232.606 244.828 236.094 233.433 236.268 221.749C236.444 212.226 234.869 202.752 231.621 193.798C229.471 187.755 226.767 181.924 223.545 176.378C222.41 174.403 221.481 172.906 220.846 171.887L220.126 170.734C219.967 170.476 219.894 170.329 219.894 170.329C220.003 170.439 220.097 170.563 220.175 170.697L220.957 171.826C221.629 172.808 222.594 174.281 223.754 176.256C227.076 181.772 229.855 187.598 232.051 193.652C235.386 202.643 237.028 212.174 236.893 221.763C236.836 224.527 236.605 227.285 236.202 230.021C235.799 232.882 235.191 235.711 234.383 238.485C232.696 244.36 230.082 249.927 226.639 254.977C223.111 259.926 218.901 264.352 214.136 268.125C209.718 271.628 205.091 274.86 200.28 277.801C191.138 283.481 182.721 288.316 176.203 293.167C173.243 295.305 170.422 297.628 167.757 300.123C166.615 301.26 165.522 302.287 164.564 303.29L162.107 306.165C161.738 306.605 161.382 307.009 161.075 307.388L160.276 308.551L159.046 310.374L158.26 311.488C158.184 311.621 158.098 311.748 158.002 311.867Z" fill="#263238"/>
<path d="M146.559 333.5C146.485 333.699 146.394 333.891 146.288 334.075L145.403 335.63C145.009 336.291 144.542 337.123 144.062 338.078C143.582 339.033 142.966 340.159 142.449 341.445C142.178 342.081 141.883 342.742 141.587 343.428C141.291 344.114 141.045 344.873 140.749 345.632C140.158 347.151 139.688 348.816 139.146 350.531C136.998 358.209 136.246 366.21 136.927 374.154C137.131 375.968 137.275 377.709 137.59 379.302C137.723 380.099 137.832 380.884 137.989 381.62C138.147 382.355 138.317 383.066 138.475 383.741C138.742 385.102 139.144 386.291 139.436 387.346C139.728 388.4 140.02 389.308 140.288 390.044L140.86 391.736C140.942 391.927 140.996 392.13 141.018 392.337C140.901 392.166 140.806 391.98 140.738 391.785C140.555 391.331 140.335 390.791 140.055 390.129C139.686 389.256 139.365 388.363 139.092 387.455C138.764 386.401 138.337 385.211 138.034 383.85C137.864 383.176 137.693 382.464 137.511 381.729C137.329 380.993 137.22 380.196 137.063 379.399C136.723 377.781 136.555 376.04 136.338 374.214C135.588 366.221 136.345 358.158 138.57 350.444C139.125 348.68 139.619 347.002 140.247 345.484C140.555 344.725 140.802 343.978 141.122 343.28L142.033 341.284C142.575 340.06 143.263 338.922 143.743 337.942C144.177 337.1 144.657 336.283 145.182 335.494L146.166 333.989C146.412 333.659 146.535 333.487 146.559 333.5Z" fill="#263238"/>
<path d="M298.006 363.28L297.76 363.451L297 363.927L294.018 365.71L291.858 366.931C291.049 367.383 290.153 367.797 289.196 368.273C287.258 369.201 285.123 370.385 282.596 371.335L278.672 372.933C277.31 373.469 275.826 373.895 274.33 374.406C271.35 375.491 268.039 376.268 264.594 377.155C249.466 380.665 233.781 381.049 218.5 378.284C214.997 377.566 211.665 376.946 208.627 376.008C207.109 375.564 205.614 375.217 204.218 374.773L200.226 373.307C197.667 372.48 195.463 371.409 193.492 370.572C192.512 370.141 191.594 369.759 190.774 369.34L188.546 368.172L185.485 366.535L184.702 366.092L184.445 365.932C184.445 365.932 184.555 365.933 184.739 366.043L185.547 366.425L188.656 367.951L190.897 369.059C191.729 369.453 192.66 369.81 193.639 370.229C195.611 371.017 197.814 372.064 200.386 372.853L204.329 374.296C205.726 374.764 207.22 375.098 208.739 375.53C211.764 376.444 215.084 377.027 218.538 377.732C233.749 380.399 249.338 380.016 264.399 376.604C267.832 375.728 271.13 374.988 274.111 373.928C275.607 373.429 277.078 373.027 278.44 372.491L282.365 370.943C284.891 370.017 287.038 368.869 288.976 367.979C289.933 367.515 290.841 367.113 291.65 366.759L293.834 365.538L296.865 363.853L297.662 363.438C297.908 363.304 298.006 363.267 298.006 363.28Z" fill="#263238"/>
<path d="M311.334 103.928C311.259 104.017 311.172 104.095 311.076 104.16L310.266 104.82C309.517 105.419 308.473 106.263 307.136 107.265C304.41 109.416 300.458 112.533 295.462 116.248C289.648 120.679 283.553 124.727 277.213 128.366C273.443 130.465 269.514 132.264 265.462 133.746C261.09 135.326 256.532 136.33 251.901 136.732C242.899 137.218 233.927 135.331 225.883 131.26C222.404 129.484 219.047 127.479 215.834 125.259C212.848 123.145 210.12 121.092 207.71 119.114C202.816 115.207 199.073 111.902 196.431 109.642L193.409 107.013L192.639 106.325L192.382 106.067C192.382 106.067 192.492 106.067 192.675 106.264L193.495 106.915L196.59 109.446C199.282 111.658 203.123 114.901 207.992 118.759C210.439 120.689 213.143 122.716 216.142 124.806C219.343 126.988 222.684 128.96 226.141 130.71C234.105 134.7 242.971 136.548 251.866 136.07C256.441 135.674 260.946 134.687 265.267 133.133C269.292 131.671 273.196 129.897 276.945 127.826C283.274 124.253 289.377 120.292 295.218 115.965C300.225 112.299 304.215 109.244 307.001 107.154L310.205 104.71L311.052 104.099C311.137 104.028 311.232 103.97 311.334 103.928Z" fill="#263238"/>
<g opacity="0.24">
<path opacity="0.24" d="M200.238 373.368C206.056 368.894 214.216 369.99 221.394 371.525C228.572 373.06 235.798 375.514 243.067 374.512C248.547 373.751 253.577 371.078 259.008 369.913C264.44 368.748 270.97 369.632 273.963 374.283C249.949 381.965 224.09 381.644 200.275 373.368" fill="black"/>
</g>
<path d="M402.933 340.534L376.647 310.932L376.302 346.851L384.195 369.907L305.219 383.429L302.005 321.13L296.419 273.323C296.087 270.473 296.708 267.593 298.186 265.133C299.663 262.673 301.913 260.772 304.585 259.725L326.331 251.193L356.957 256.87L369.263 261.577C374.423 263.555 379.02 266.766 382.651 270.932L419.621 313.387" fill="url(#paint3_linear)"/>
<path d="M374.824 303.82C376.312 303.803 377.798 303.699 379.273 303.51C382.829 302.976 386.144 301.391 388.793 298.96C391.443 296.529 393.305 293.362 394.143 289.865C394.451 288.404 394.679 286.928 394.826 285.442C394.925 285.843 394.961 286.257 394.934 286.668C394.941 287.78 394.824 288.89 394.584 289.976C393.834 293.614 391.959 296.923 389.225 299.436C386.49 301.948 383.034 303.537 379.346 303.976C378.244 304.116 377.131 304.139 376.025 304.043C375.615 304.033 375.21 303.958 374.824 303.82Z" fill="white"/>
<path d="M377.028 345.32C377.212 345.32 377.288 332.869 377.197 317.526C377.107 302.182 376.876 289.743 376.692 289.743C376.508 289.742 376.433 302.181 376.523 317.537C376.613 332.892 376.845 345.32 377.028 345.32Z" fill="#263238"/>
<path d="M374.117 354.444L326.461 335.14C324.577 334.377 322.944 333.103 321.745 331.461C320.547 329.819 319.831 327.875 319.679 325.849L316.282 280.106C316.282 280.106 316.74 260.645 304.585 259.676L297.704 262.382C288.76 267.106 286.527 280.116 287.719 290.156C289.417 304.424 290.098 324.622 291.996 337.004C293.567 347.142 299.308 356.063 309.254 358.695L367.978 371.539L374.117 354.444Z" fill="url(#paint4_linear)"/>
<path d="M316.954 287.08C317.033 287.422 317.082 287.771 317.099 288.122C317.171 288.87 317.279 289.875 317.399 291.137C317.639 293.822 317.974 297.597 318.381 302.23C318.788 306.864 319.241 312.514 319.768 318.692C319.887 320.248 320.018 321.83 320.15 323.448C320.241 325.094 320.442 326.732 320.752 328.351C321.081 329.988 321.909 331.484 323.121 332.633C324.425 333.785 325.909 334.715 327.514 335.387C340.652 341.101 352.762 345.833 361.554 349.148L372 353.018L374.841 354.066C375.173 354.176 375.497 354.312 375.808 354.472C375.461 354.408 375.121 354.313 374.792 354.188L371.914 353.251C369.464 352.412 365.79 351.167 361.407 349.552C352.553 346.347 340.43 341.689 327.243 335.999C325.576 335.295 324.034 334.323 322.678 333.122C321.378 331.882 320.491 330.271 320.139 328.509C319.826 326.866 319.629 325.203 319.549 323.532C319.418 321.902 319.298 320.321 319.179 318.764C318.714 312.636 318.285 306.997 317.988 302.291C317.692 297.584 317.393 293.87 317.203 291.186C317.12 289.96 317.061 288.906 317.025 288.159C316.971 287.802 316.947 287.441 316.954 287.08Z" fill="#263238"/>
<path d="M289.573 311.888C289.622 312.089 289.65 312.294 289.658 312.501L289.813 314.266C289.957 315.896 290.136 318.09 290.363 320.762C290.59 323.434 290.951 326.756 291.421 330.36C291.882 334.263 292.59 338.133 293.542 341.946C293.989 343.909 294.773 345.781 295.858 347.477C296.92 349.035 298.109 350.501 299.415 351.86C301.641 354.159 304.213 356.096 307.038 357.599C309.672 358.945 312.497 359.877 315.415 360.362C315.207 360.388 314.997 360.388 314.79 360.361C314.197 360.32 313.608 360.241 313.026 360.124C310.871 359.718 308.784 359.008 306.829 358.015C303.924 356.546 301.279 354.611 298.998 352.288C297.646 350.914 296.419 349.423 295.331 347.832C294.19 346.088 293.365 344.157 292.892 342.128C291.927 338.286 291.227 334.382 290.796 330.445C290.363 326.767 290.075 323.556 289.885 320.81C289.695 318.065 289.589 315.834 289.531 314.29C289.533 313.579 289.534 312.991 289.535 312.513C289.514 312.304 289.527 312.093 289.573 311.888Z" fill="#263238"/>
<path d="M309.898 343.929C310.025 343.036 310.322 342.175 310.773 341.394C311.76 339.443 313.126 337.708 314.792 336.292C316.457 334.875 318.388 333.804 320.472 333.142C321.317 332.822 322.217 332.67 323.12 332.695C322.318 333.027 321.499 333.32 320.667 333.572C318.696 334.33 316.866 335.416 315.256 336.784C313.65 338.154 312.284 339.783 311.214 341.603C310.353 343.011 309.996 343.966 309.898 343.929Z" fill="#263238"/>
<path d="M319.359 309.168C319.463 309.199 319.562 309.245 319.652 309.304L320.509 309.759C321.614 310.306 322.751 310.788 323.913 311.2C328.198 312.714 332.797 313.12 337.281 312.38C343.942 311.207 349.898 307.521 353.921 302.084C356.325 298.944 357.836 295.213 358.294 291.285C358.521 289.22 358.308 287.132 357.67 285.156C356.996 283.138 355.819 281.326 354.249 279.891C352.702 278.437 350.752 277.485 348.654 277.159C347.661 276.979 346.639 277.026 345.666 277.298C344.693 277.57 343.795 278.059 343.038 278.728C342.353 279.396 341.955 280.305 341.93 281.262C341.949 282.214 342.274 283.134 342.856 283.887C343.463 284.614 344.208 285.214 345.049 285.651C345.889 286.089 346.808 286.355 347.753 286.434C351.07 286.854 354.441 286.435 357.554 285.215C360.668 283.995 363.425 282.012 365.574 279.449C367.203 277.455 368.431 275.165 369.191 272.704C369.758 270.84 370.068 268.907 370.11 266.959C370.126 265.728 370.039 264.498 369.848 263.282C369.775 262.901 369.715 262.583 369.679 262.338C369.668 262.228 369.668 262.117 369.679 262.007C370.182 263.592 370.427 265.247 370.404 266.91C370.413 268.888 370.136 270.856 369.583 272.754C368.209 277.33 365.255 281.269 361.248 283.871C357.241 286.472 352.441 287.567 347.702 286.961C346.691 286.869 345.707 286.579 344.808 286.106C343.908 285.633 343.112 284.987 342.463 284.205C341.799 283.347 341.432 282.297 341.415 281.212C341.419 280.097 341.861 279.028 342.647 278.237C343.472 277.503 344.452 276.965 345.513 276.662C346.574 276.358 347.69 276.298 348.778 276.485C351.007 276.82 353.079 277.829 354.716 279.377C356.372 280.88 357.61 282.787 358.307 284.912C358.97 286.967 359.191 289.139 358.956 291.286C358.469 295.299 356.907 299.107 354.435 302.306C351.023 306.941 346.187 310.331 340.666 311.957C335.145 313.583 329.244 313.356 323.864 311.31C322.274 310.798 320.76 310.078 319.359 309.168Z" fill="white"/>
<path d="M288.134 296.91C288.341 296.543 288.607 296.213 288.92 295.931C289.705 295.103 290.569 294.354 291.498 293.694C294.631 291.55 298.273 290.269 302.058 289.978C304.134 289.749 306.234 289.84 308.283 290.249C309.948 290.598 311.559 291.17 313.071 291.95C314.086 292.464 315.06 293.056 315.984 293.721C316.342 293.941 316.663 294.214 316.938 294.531C316.864 294.629 315.445 293.548 312.874 292.354C309.523 290.791 305.803 290.189 302.13 290.615C298.442 290.899 294.88 292.082 291.755 294.062C289.386 295.638 288.219 296.996 288.134 296.91Z" fill="white"/>
<path d="M295.838 264.217C296.998 265.314 298.293 266.26 299.692 267.031C301.22 267.819 302.881 268.313 304.591 268.488C306.672 268.701 308.774 268.411 310.72 267.643C312.628 266.834 314.313 265.576 315.63 263.977C316.718 262.642 317.552 261.119 318.091 259.484C318.534 257.949 318.789 256.365 318.848 254.768C318.966 255.19 319.019 255.628 319.005 256.067C319.023 257.269 318.859 258.467 318.519 259.62C318.016 261.341 317.18 262.946 316.058 264.345C314.711 266.1 312.923 267.467 310.876 268.306C308.83 269.146 306.597 269.428 304.406 269.125C302.629 268.92 300.91 268.366 299.348 267.496C298.296 266.916 297.339 266.178 296.509 265.309C296.22 264.989 295.993 264.619 295.838 264.217Z" fill="white"/>
<path d="M337.248 339.513C337.251 339.209 337.285 338.905 337.348 338.607C337.521 337.756 337.808 336.932 338.199 336.157C339.763 333.306 342.299 331.111 345.345 329.971C349.828 328.2 354.785 328.033 359.378 329.499C361.901 330.251 364.791 331.189 366.722 333.656C367.208 334.286 367.513 335.036 367.607 335.826C367.7 336.616 367.577 337.417 367.252 338.143C366.509 339.559 365.311 340.683 363.85 341.334C362.44 342.028 360.897 342.41 359.326 342.452C357.766 342.524 356.231 342.044 354.99 341.095C354.418 340.604 353.952 340.002 353.62 339.325C353.289 338.648 353.099 337.91 353.062 337.157C352.985 335.75 353.209 334.342 353.721 333.028C355.577 328.565 359.102 325.002 363.546 323.098C366.494 321.792 369.722 321.242 372.936 321.5C374.107 321.592 375.26 321.837 376.366 322.23C376.366 322.316 375.141 321.909 372.911 321.745C370.248 321.595 367.582 321.99 365.077 322.905C362.572 323.821 360.28 325.238 358.341 327.07C356.541 328.787 355.136 330.875 354.223 333.189C353.745 334.425 353.537 335.749 353.614 337.072C353.648 337.743 353.819 338.399 354.118 339C354.416 339.602 354.834 340.136 355.347 340.569C356.466 341.432 357.855 341.869 359.266 341.802C360.739 341.767 362.187 341.41 363.508 340.757C364.842 340.166 365.94 339.146 366.627 337.86C366.905 337.234 367.008 336.546 366.928 335.866C366.847 335.187 366.586 334.542 366.17 333.998C365.317 332.917 364.224 332.05 362.976 331.467C361.767 330.885 360.509 330.411 359.217 330.05C354.746 328.592 349.912 328.708 345.515 330.376C342.536 331.447 340.025 333.527 338.419 336.256C337.887 337.285 337.493 338.381 337.248 339.513Z" fill="white"/>
<path d="M305.447 356.665C305.447 356.542 307.261 356.399 310.02 355.449C313.623 354.189 316.852 352.046 319.414 349.218C321.976 346.389 323.789 342.963 324.687 339.254C325.392 336.412 325.371 334.562 325.494 334.574C325.579 334.998 325.598 335.432 325.552 335.861C325.521 337.036 325.379 338.205 325.128 339.353C324.326 343.182 322.516 346.728 319.886 349.624C317.256 352.52 313.901 354.662 310.167 355.829C309.049 356.191 307.899 356.447 306.734 356.594C306.31 356.68 305.877 356.703 305.447 356.665Z" fill="white"/>
<path d="M290.056 321.081C290.237 320.979 290.431 320.901 290.632 320.849C291.025 320.727 291.589 320.557 292.337 320.362C294.459 319.808 296.656 319.59 298.846 319.714C300.367 319.832 301.857 320.204 303.255 320.814C304.884 321.521 306.3 322.639 307.366 324.058C308.536 325.669 309.1 327.64 308.96 329.625C308.879 330.682 308.554 331.704 308.01 332.614C307.459 333.572 306.591 334.307 305.554 334.692C305.008 334.877 304.423 334.915 303.857 334.802C303.292 334.688 302.766 334.428 302.333 334.048C301.599 333.236 301.202 332.174 301.224 331.08C301.165 329.127 301.554 327.186 302.363 325.408C303.487 322.873 305.425 320.787 307.87 319.48C310.315 318.173 313.127 317.72 315.859 318.194C316.446 318.286 317.024 318.431 317.586 318.626C317.966 318.774 318.161 318.86 318.149 318.885C318.137 318.909 317.329 318.626 315.822 318.439C313.692 318.176 311.53 318.45 309.533 319.234C306.574 320.414 304.203 322.718 302.939 325.642C302.187 327.341 301.827 329.187 301.886 331.044C301.858 331.982 302.189 332.894 302.812 333.595C303.162 333.895 303.585 334.098 304.038 334.185C304.492 334.272 304.96 334.24 305.396 334.091C306.305 333.757 307.069 333.117 307.557 332.282C308.046 331.457 308.342 330.531 308.421 329.575C308.553 327.735 308.041 325.905 306.973 324.401C305.981 323.049 304.652 321.982 303.119 321.304C301.78 320.692 300.347 320.308 298.882 320.168C296.739 320.003 294.584 320.152 292.483 320.608C290.902 320.911 290.08 321.13 290.056 321.081Z" fill="white"/>
<g opacity="0.3">
<path opacity="0.3" d="M360.415 348.962C355.323 346.071 350.34 343.842 345.014 341.417C339.688 338.992 334.462 335.855 330.979 331.142C324.417 322.256 325.191 309.451 318.482 300.687C318.911 306.57 319.335 312.457 319.756 318.349C320.149 323.742 319.317 329.083 322.777 332.755C325.7 335.849 331.405 338.226 335.447 339.571C343.566 342.272 352.308 346.273 360.415 348.962Z" fill="black"/>
</g>
<path d="M443.216 416.355C443.216 416.355 483.107 427.469 484.711 428.061C487.16 428.911 486.688 437.722 482.951 437.567C481.174 437.502 452.311 438.581 448.635 438.352C444.959 438.124 433.939 433.75 433.939 433.75L443.216 416.355Z" fill="url(#paint5_linear)"/>
<path d="M459.765 431.624C460.261 430.158 460.854 428.726 461.539 427.338C462.4 426.055 463.345 424.829 464.365 423.668C462.943 424.442 461.762 425.593 460.951 426.994C460.139 428.396 459.729 429.993 459.765 431.612L459.765 431.624Z" fill="#263238"/>
<path d="M455.602 429.728C455.798 429.728 456.207 427.878 457.277 425.797C458.348 423.716 459.601 422.26 459.466 422.125C458.299 423.03 457.348 424.182 456.679 425.499C456.011 426.815 455.643 428.264 455.602 429.74L455.602 429.728Z" fill="#263238"/>
<path d="M451.768 428.678C451.967 427.25 452.282 425.841 452.709 424.464C453.337 423.166 454.065 421.918 454.886 420.731C453.618 421.58 452.641 422.797 452.084 424.217C451.526 425.637 451.416 427.194 451.768 428.678Z" fill="#263238"/>
<path d="M452.429 423.52C452.782 422.574 452.931 421.563 452.864 420.555C452.854 419.457 452.72 418.363 452.466 417.294C452.314 416.663 452.115 416.044 451.87 415.443C451.755 415.062 451.535 414.722 451.235 414.461C451.033 414.311 450.786 414.236 450.535 414.249C450.285 414.262 450.047 414.362 449.862 414.532C449.552 414.828 449.363 415.23 449.332 415.658C449.301 416.009 449.301 416.361 449.33 416.712C449.333 417.369 449.413 418.023 449.571 418.661C449.834 419.73 450.244 420.758 450.79 421.715C451.227 422.637 451.832 423.469 452.574 424.17C452.672 424.17 452 423.176 451.207 421.544C450.744 420.6 450.396 419.604 450.172 418.576C450.044 417.976 449.98 417.364 449.98 416.75C449.981 416.137 449.983 415.377 450.351 415.084C450.423 415.019 450.517 414.983 450.615 414.983C450.712 414.983 450.806 415.02 450.878 415.085C451.077 415.281 451.227 415.521 451.318 415.785C451.551 416.361 451.75 416.951 451.914 417.551C452.193 418.568 452.367 419.612 452.435 420.665C452.505 422.38 452.318 423.507 452.429 423.52Z" fill="#263238"/>
<path d="M452.38 423.115C451.568 422.774 450.687 422.63 449.808 422.693C448.854 422.691 447.903 422.804 446.976 423.031C446.405 423.159 445.853 423.359 445.333 423.628C445.005 423.793 444.741 424.061 444.579 424.39C444.417 424.719 444.366 425.091 444.434 425.452C444.525 425.796 444.705 426.11 444.957 426.362C445.208 426.615 445.521 426.796 445.865 426.889C446.452 427.037 447.067 427.038 447.654 426.892C448.599 426.679 449.487 426.262 450.255 425.672C450.982 425.187 451.612 424.569 452.109 423.85C451.371 424.28 450.662 424.757 449.986 425.28C449.244 425.787 448.411 426.147 447.533 426.341C447.046 426.462 446.537 426.461 446.05 426.337C445.82 426.279 445.61 426.161 445.44 425.995C445.27 425.828 445.147 425.621 445.084 425.392C445.047 425.167 445.085 424.936 445.192 424.735C445.298 424.534 445.468 424.373 445.674 424.278C446.13 424.028 446.617 423.84 447.122 423.717C448.002 423.468 448.906 423.314 449.819 423.257C451.376 423.064 452.356 423.226 452.38 423.115Z" fill="#263238"/>
<path d="M465.891 432.065C466.065 430.846 466.334 429.642 466.696 428.464C467.258 427.371 467.912 426.326 468.651 425.343C467.487 425.974 466.577 426.988 466.074 428.213C465.571 429.438 465.507 430.799 465.891 432.065Z" fill="#263238"/>
<path d="M438.044 433.858C438.527 434.165 439.045 434.413 439.587 434.596C441.034 435.149 442.515 435.611 444.02 435.978C449.023 437.081 454.141 437.577 459.262 437.456C465.243 437.395 470.636 437.137 474.545 436.986L479.166 436.751C479.734 436.742 480.299 436.686 480.858 436.583C480.295 436.493 479.724 436.463 479.154 436.493L474.534 436.484L459.264 436.746C454.189 436.865 449.117 436.444 444.131 435.488C440.31 434.708 438.093 433.723 438.044 433.858Z" fill="#263238"/>
<path d="M436.866 434.762C436.865 434.848 438.006 434.213 439.859 433.408C442.212 432.303 444.829 431.884 447.41 432.199C449.948 432.755 452.237 434.118 453.934 436.085C454.64 436.923 455.404 437.711 456.221 438.443C455.697 437.467 455.043 436.567 454.278 435.767C453.493 434.851 452.607 434.027 451.636 433.311C450.42 432.406 449.005 431.807 447.51 431.562C444.802 431.228 442.057 431.74 439.651 433.028C438.635 433.452 437.694 434.038 436.866 434.762Z" fill="#263238"/>
<path d="M400.824 405.25C400.824 405.25 363.002 429.901 361.652 430.903C359.614 432.43 361.927 439.751 365.459 438.497C367.127 437.9 398.837 429.143 402.247 427.826C405.657 426.51 414.851 419.103 414.851 419.103L400.824 405.25Z" fill="url(#paint6_linear)"/>
<path d="M389.57 424.784C389.117 423.228 388.246 421.827 387.051 420.733C385.856 419.639 384.383 418.894 382.793 418.581C384.12 419.38 385.391 420.267 386.599 421.236C387.662 422.356 388.654 423.541 389.57 424.784Z" fill="#263238"/>
<path d="M392.959 421.728C392.481 420.329 391.699 419.052 390.67 417.99C389.64 416.929 388.388 416.108 387.003 415.588C386.905 415.76 388.557 416.817 390.184 418.438C391.81 420.059 392.787 421.826 392.959 421.728Z" fill="#263238"/>
<path d="M396.37 419.554C396.368 418.012 395.785 416.527 394.737 415.396C393.861 414.148 392.552 413.271 391.065 412.937C392.2 413.827 393.267 414.8 394.258 415.848C395.059 417.025 395.765 418.264 396.37 419.554Z" fill="#263238"/>
<path d="M394.198 414.855C394.296 414.855 393.784 413.788 393.359 412.023C393.103 410.999 392.953 409.951 392.912 408.897C392.871 408.276 392.872 407.654 392.916 407.034C392.912 406.754 392.984 406.479 393.126 406.238C393.179 406.154 393.263 406.095 393.359 406.073C393.455 406.05 393.556 406.066 393.641 406.116C394.069 406.289 394.288 407.024 394.495 407.613C394.674 408.197 394.796 408.796 394.859 409.403C394.952 410.453 394.917 411.511 394.755 412.552C394.494 414.341 394.136 415.431 394.234 415.468C394.741 414.593 395.075 413.628 395.22 412.627C395.458 411.554 395.542 410.452 395.472 409.355C395.424 408.699 395.307 408.05 395.121 407.418C395.021 407.08 394.899 406.748 394.755 406.425C394.593 406.023 394.288 405.695 393.899 405.504C393.672 405.398 393.415 405.375 393.173 405.439C392.931 405.504 392.719 405.652 392.575 405.857C392.372 406.197 392.265 406.587 392.266 406.983C392.128 408.729 392.324 410.484 392.844 412.156C393.1 413.142 393.561 414.061 394.198 414.855Z" fill="#263238"/>
<path d="M394.064 414.45C394.064 414.549 394.996 414.109 396.517 413.733C397.406 413.522 398.313 413.4 399.226 413.371C399.747 413.336 400.27 413.37 400.782 413.472C401.008 413.503 401.217 413.606 401.38 413.765C401.543 413.924 401.651 414.132 401.687 414.356C401.697 414.6 401.642 414.842 401.527 415.057C401.413 415.272 401.243 415.453 401.035 415.58C400.613 415.845 400.133 416.003 399.637 416.043C398.741 416.129 397.837 416.035 396.978 415.768C396.18 415.467 395.362 415.224 394.529 415.04C395.219 415.593 396.008 416.011 396.855 416.27C397.763 416.62 398.737 416.769 399.709 416.705C400.314 416.675 400.9 416.49 401.414 416.169C401.717 415.984 401.965 415.72 402.132 415.406C402.299 415.091 402.378 414.738 402.361 414.382C402.319 414.017 402.159 413.676 401.905 413.41C401.651 413.144 401.318 412.968 400.955 412.909C400.381 412.806 399.796 412.78 399.215 412.831C398.262 412.893 397.319 413.068 396.407 413.352C395.552 413.533 394.75 413.909 394.064 414.45Z" fill="#263238"/>
<path d="M370.266 437.146C370.266 437.207 370.904 436.767 371.201 435.69C371.497 434.281 371.246 432.813 370.499 431.583C370.137 430.924 369.729 430.293 369.277 429.693C368.91 429.181 368.478 428.719 367.993 428.318C367.646 428.029 367.219 427.853 366.769 427.813C366.45 427.812 366.291 427.873 366.291 427.91C366.29 427.946 366.964 427.972 367.661 428.685C368.073 429.102 368.437 429.563 368.749 430.059C369.188 430.652 369.595 431.266 369.971 431.9C370.646 433.001 370.936 434.295 370.797 435.578C370.652 436.111 370.474 436.635 370.266 437.146Z" fill="#263238"/>
<path d="M383.854 427.04C383.906 426.377 383.814 425.71 383.585 425.086C383.356 424.461 382.995 423.894 382.526 423.422C382.15 422.873 381.658 422.414 381.084 422.076C380.511 421.738 379.871 421.53 379.209 421.466C380.209 422.179 381.146 422.977 382.01 423.85C382.713 424.859 383.33 425.927 383.854 427.04Z" fill="#263238"/>
<path d="M410.964 420.406C410.376 420.731 409.817 421.107 409.295 421.53C407.796 422.566 406.239 423.516 404.632 424.375C402.254 425.63 399.795 426.726 397.272 427.656C394.402 428.717 391.14 429.715 387.805 430.688C380.999 432.634 374.843 434.411 370.404 435.737L365.119 437.38C364.466 437.552 363.83 437.78 363.218 438.063C363.886 437.973 364.546 437.831 365.192 437.638L370.501 436.166C374.977 434.95 381.145 433.247 387.95 431.301C391.347 430.315 394.572 429.293 397.442 428.196C399.997 427.231 402.477 426.081 404.864 424.756C406.467 423.852 408.001 422.831 409.454 421.702C409.992 421.312 410.497 420.879 410.964 420.406Z" fill="#263238"/>
<path d="M412.36 420.911C411.345 420.462 410.267 420.17 409.163 420.047C406.48 419.544 403.706 419.88 401.22 421.01C399.876 421.71 398.722 422.725 397.856 423.969C397.143 424.95 396.545 426.01 396.072 427.127C395.579 428.118 395.226 429.173 395.024 430.262C395.581 429.317 396.074 428.335 396.501 427.324C397.528 424.933 399.304 422.941 401.562 421.648C403.936 420.586 406.562 420.214 409.138 420.574C411.098 420.737 412.335 421.009 412.36 420.911Z" fill="#263238"/>
<path d="M479.445 345.107C479.445 345.107 490.772 349.175 490.782 361.884C490.829 386.21 441.507 412.932 441.507 412.932L376.034 369.363L371.932 367.687C371.932 367.687 460.545 334.638 479.445 345.107Z" fill="#263238"/>
<path d="M409.199 391.369C409.803 391.036 410.378 390.652 410.917 390.221C411.985 389.439 413.519 388.29 415.397 386.836C419.166 383.952 424.273 379.845 429.785 375.138C435.297 370.431 440.135 366.018 443.574 362.753C445.293 361.126 446.668 359.781 447.614 358.84C448.124 358.381 448.593 357.877 449.014 357.335C448.449 357.729 447.919 358.171 447.43 358.655L443.256 362.409C439.732 365.576 434.845 369.94 429.345 374.635C423.845 379.329 418.787 383.485 415.116 386.468L410.758 390.012C410.203 390.422 409.682 390.876 409.199 391.369Z" fill="url(#paint7_linear)"/>
<path d="M460.921 354.162C456.634 353.699 452.339 354.955 448.977 357.654C449.087 357.838 451.431 356.311 454.79 355.362C458.15 354.413 460.92 354.37 460.921 354.162Z" fill="url(#paint8_linear)"/>
<path d="M455.279 350.314C453.761 350.955 452.424 351.96 451.387 353.24C450.35 354.52 449.644 356.037 449.332 357.655C449.528 357.655 450.243 355.684 451.902 353.665C453.561 351.646 455.389 350.486 455.279 350.314Z" fill="url(#paint9_linear)"/>
<path d="M482.874 427.432C482.875 427.359 482.091 427.198 481.182 427.943C480.112 428.937 479.438 430.286 479.287 431.738C479.069 433.167 479.27 434.627 479.866 435.943C480.33 436.937 480.844 437.404 480.905 437.355C480.745 436.81 480.545 436.277 480.308 435.76C479.881 434.499 479.758 433.155 479.948 431.838C480.097 430.525 480.638 429.288 481.5 428.287C482.2 427.566 482.887 427.543 482.874 427.432Z" fill="#263238"/>
<path d="M464.454 305.308L440.972 364.45L340.44 365.869L338.589 360.436L373.825 359.223L390.872 306.758L464.454 305.308Z" fill="url(#paint10_linear)"/>
<path d="M417.44 330.871C418.212 330.485 419.08 330.331 419.939 330.426C420.797 330.521 421.61 330.862 422.279 331.408C422.847 331.945 423.24 332.64 423.407 333.404C423.574 334.167 423.506 334.963 423.214 335.687C422.897 336.411 422.385 337.031 421.734 337.478C421.083 337.925 420.321 338.181 419.532 338.216C418.702 338.268 417.877 338.047 417.184 337.588C416.491 337.129 415.966 336.456 415.689 335.671C415.429 334.794 415.453 333.857 415.759 332.994C416.064 332.132 416.636 331.388 417.39 330.871" fill="#EBEBEB"/>
<path d="M447.701 415.912C447.701 415.912 355.206 354.956 351.434 353.686C347.662 352.416 338.484 346.391 329.324 348.897C320.164 351.402 311.911 359.608 307.781 371.609C305.413 378.467 304.286 390.168 303.74 398.954C303.016 409.459 306.399 419.836 313.177 427.895C316.179 431.656 320.171 434.504 324.704 436.118C325.671 436.427 326.676 436.686 327.705 436.909C345.209 440.745 363.253 432.915 373.088 417.96L375.252 414.681C375.252 414.681 435.806 437.063 436.751 436.759L447.701 415.912Z" fill="#263238"/>
<path d="M333.152 398.942C333.316 399.024 333.483 399.098 333.654 399.163L335.173 399.767L341.038 402.047L362.847 410.316C372.104 413.791 383.199 417.932 395.653 422.493C408.106 427.053 421.895 432.046 436.64 437.065L436.897 437.163L437.032 436.906L444.304 423.098L447.995 416.059L448.131 415.79L447.874 415.63L377.318 370.628L356.12 357.2L350.368 353.585L348.863 352.663C348.52 352.454 348.336 352.368 348.336 352.368L348.826 352.724L350.294 353.695L355.985 357.384L377.133 371.019L447.578 416.193L447.457 415.751C446.288 417.992 444.996 420.379 443.765 422.79L436.506 436.599L436.91 436.44C422.215 431.434 408.377 426.454 395.911 421.93L363.056 409.899L341.124 401.789L335.222 399.62L333.679 399.078L333.152 398.942Z" fill="url(#paint11_linear)"/>
<path d="M343.215 183.212C344.805 178.938 348.301 177.095 352.728 176.038C354.954 175.525 357.271 175.557 359.483 176.131C361.694 176.706 363.734 177.805 365.429 179.337C367.668 181.388 369.304 184.247 372.071 185.479C376.638 187.559 382.49 184.545 386.773 187.091C388.06 187.852 389.044 189.036 389.556 190.441C390.069 191.846 390.079 193.385 389.585 194.796C389.091 196.208 388.123 197.405 386.846 198.183C385.57 198.962 384.063 199.274 382.581 199.067C385.557 200.471 386.099 204.957 384.047 207.526C381.995 210.095 378.206 210.786 375.034 209.885C371.908 208.8 369.136 206.884 367.019 204.341C364.793 201.885 362.838 199.246 360.416 196.974C358.092 194.603 355.005 193.129 351.7 192.813C347.251 192.632 343.115 195.626 340.791 199.408C338.467 203.19 337.563 207.686 336.904 212.096C336.245 216.507 335.745 220.991 334.033 225.105C333.836 225.595 333.541 226.121 333.038 226.23C332.29 226.388 331.753 225.566 331.46 224.867C328.123 216.989 326.367 208.533 326.292 199.978C326.241 195.076 326.815 190.383 329.899 186.505C332.983 182.627 340.084 180.227 343.178 183.151" fill="#263238"/>
<path d="M332.732 202.957L325.814 252.429C325.537 254.427 325.669 256.46 326.202 258.405C326.736 260.35 327.66 262.166 328.917 263.743C330.175 265.32 331.741 266.624 333.519 267.577C335.296 268.529 337.25 269.11 339.259 269.283C343.063 269.622 346.852 268.485 349.841 266.108C352.83 263.73 354.79 260.294 355.316 256.511C355.826 252.835 356.261 249.687 356.348 249.307C356.348 249.307 369.104 249.885 371.753 237.55C372.991 231.584 374.672 219.088 376.031 207.767C376.718 201.908 375.176 196.006 371.713 191.231C368.249 186.457 363.117 183.159 357.335 181.992L356.11 181.756C343.063 179.866 334.218 189.897 332.732 202.957Z" fill="#FFBE9D"/>
<path d="M356.336 249.136C350.602 248.071 345.314 245.325 341.144 241.248C341.144 241.248 343.158 250.909 355.717 252.308L356.336 249.136Z" fill="#EB996E"/>
<path d="M370.685 215.329C370.597 215.79 370.332 216.199 369.946 216.466C369.56 216.733 369.085 216.839 368.623 216.759C368.395 216.733 368.174 216.661 367.975 216.548C367.775 216.435 367.601 216.283 367.462 216.1C367.322 215.918 367.221 215.71 367.165 215.487C367.108 215.265 367.097 215.034 367.132 214.807C367.216 214.344 367.48 213.933 367.866 213.663C368.252 213.393 368.729 213.286 369.194 213.365C369.422 213.393 369.642 213.466 369.842 213.58C370.042 213.695 370.216 213.848 370.355 214.031C370.494 214.215 370.595 214.424 370.652 214.647C370.708 214.87 370.719 215.102 370.685 215.329Z" fill="#263238"/>
<path d="M372.086 213.298C371.816 213.494 370.679 212.229 368.78 211.845C366.882 211.461 365.287 212.144 365.104 211.837C364.921 211.53 365.338 211.348 366.037 211.03C366.969 210.618 368.008 210.513 369.003 210.73C369.992 210.922 370.894 211.426 371.574 212.169C372.1 212.759 372.209 213.225 372.086 213.298Z" fill="#263238"/>
<path d="M351.916 212.201C351.832 212.664 351.568 213.076 351.182 213.346C350.796 213.616 350.319 213.722 349.854 213.643C349.626 213.614 349.406 213.54 349.207 213.425C349.008 213.31 348.833 213.157 348.693 212.974C348.553 212.792 348.451 212.583 348.392 212.361C348.334 212.139 348.32 211.907 348.351 211.679C348.444 211.22 348.71 210.815 349.094 210.546C349.478 210.278 349.95 210.167 350.413 210.237C350.642 210.265 350.863 210.338 351.063 210.452C351.263 210.566 351.438 210.719 351.578 210.902C351.718 211.085 351.821 211.295 351.879 211.518C351.937 211.741 351.949 211.973 351.916 212.201Z" fill="#263238"/>
<path d="M353.331 209.888C353.061 210.072 351.924 208.807 350.025 208.423C348.126 208.039 346.532 208.722 346.348 208.415C346.165 208.109 346.582 207.926 347.282 207.608C348.215 207.203 349.252 207.098 350.248 207.308C351.236 207.511 352.138 208.013 352.831 208.748C353.344 209.41 353.453 209.803 353.331 209.888Z" fill="#263238"/>
<path d="M357.379 225.35C358.444 225.234 359.519 225.256 360.578 225.418C361.08 225.419 361.558 225.42 361.706 225.139C361.862 224.653 361.863 224.13 361.709 223.643C361.491 222.418 361.261 221.044 361.019 219.647C360.087 213.983 359.521 209.374 359.741 209.338C359.962 209.301 360.957 213.862 361.84 219.526C362.058 220.924 362.275 222.248 362.469 223.523C362.659 224.172 362.61 224.867 362.33 225.483C362.226 225.638 362.087 225.766 361.926 225.86C361.764 225.953 361.583 226.008 361.397 226.02C361.117 226.059 360.832 226.059 360.552 226.019C359.47 225.929 358.405 225.704 357.379 225.35Z" fill="#263238"/>
<path d="M351.521 225.559C351.839 225.56 351.418 227.667 352.885 229.483C354.352 231.3 356.557 231.526 356.557 231.82C356.556 232.114 355.992 232.113 355.061 231.951C353.848 231.725 352.752 231.081 351.965 230.131C351.218 229.211 350.856 228.038 350.954 226.857C351.054 225.975 351.386 225.51 351.521 225.559Z" fill="#263238"/>
<path d="M355.319 202.528C355.036 203.017 353.187 202.388 350.896 202.2C348.604 202.011 346.692 202.264 346.485 201.737C346.4 201.492 346.817 201.076 347.639 200.722C348.729 200.294 349.905 200.129 351.071 200.239C352.245 200.331 353.379 200.703 354.378 201.325C355.125 201.816 355.43 202.307 355.319 202.528Z" fill="#263238"/>
<path d="M372.49 207.661C372.073 208.028 370.861 207.315 369.281 206.968C367.7 206.622 366.316 206.68 366.108 206.165C366.011 205.92 366.306 205.528 366.98 205.235C367.859 204.891 368.823 204.829 369.738 205.057C370.662 205.254 371.498 205.741 372.125 206.447C372.577 207 372.686 207.478 372.49 207.661Z" fill="#263238"/>
<path d="M331.891 212.319C331.696 212.183 323.898 208.086 322.458 216.6C321.019 225.114 329.867 224.802 329.917 224.557C329.967 224.312 331.891 212.319 331.891 212.319Z" fill="#FFBE9D"/>
<path d="M327.866 220.889C327.866 220.889 327.706 220.974 327.437 221.047C327.058 221.137 326.659 221.079 326.322 220.886C325.826 220.447 325.459 219.883 325.257 219.252C325.056 218.622 325.028 217.949 325.177 217.305C325.277 216.569 325.542 215.866 325.954 215.247C326.07 214.994 326.246 214.771 326.466 214.599C326.686 214.427 326.944 214.31 327.218 214.257C327.397 214.243 327.576 214.291 327.724 214.394C327.871 214.498 327.978 214.649 328.026 214.823C328.099 215.068 328.025 215.24 328.025 215.252C328.025 215.264 328.233 215.142 328.222 214.787C328.209 214.568 328.123 214.361 327.978 214.198C327.879 214.088 327.758 213.999 327.623 213.938C327.489 213.876 327.342 213.843 327.194 213.841C326.835 213.85 326.483 213.952 326.174 214.136C325.865 214.32 325.608 214.58 325.427 214.891C324.939 215.568 324.622 216.354 324.503 217.181C324.267 218.908 324.876 220.662 326.051 221.216C326.269 221.322 326.508 221.377 326.75 221.377C326.991 221.378 327.23 221.324 327.448 221.219C327.816 221.097 327.89 220.913 327.866 220.889Z" fill="#EB996E"/>
<path d="M379.099 205.788C376.219 205.937 373.345 205.401 370.712 204.224C368.079 203.046 365.763 201.261 363.954 199.015C361.51 195.848 359.888 191.715 356.351 189.796C355.132 189.193 353.806 188.838 352.45 188.751C351.093 188.664 349.733 188.847 348.447 189.289C345.889 190.198 343.542 191.619 341.551 193.466C342.664 200.233 339.648 206.942 336.706 213.064C336.452 213.786 335.963 214.402 335.317 214.813C334.164 215.387 332.794 214.477 332.097 213.385C331.122 211.554 330.701 209.48 330.884 207.414C330.921 202.706 331.888 198.051 333.732 193.719C335.604 189.374 338.709 185.673 342.664 183.076C347.735 179.994 353.805 179.001 359.594 180.305C365.35 181.657 370.535 184.785 374.416 189.246C376.307 191.223 377.679 193.639 378.409 196.276" fill="#263238"/>
<path d="M35.7089 404.639C35.7629 404.46 35.8372 404.287 35.9305 404.125L36.6199 402.644C37.4691 400.728 38.1578 398.746 38.679 396.717C40.0382 391.45 40.5209 383.399 38.5434 373.836C37.4797 368.62 36.0741 363.479 34.3356 358.447C32.5456 352.99 30.4744 347.201 28.7841 340.935C26.8746 334.4 25.9594 327.614 26.0692 320.806C26.3415 313.687 28.4644 306.583 30.7955 299.517C33.1266 292.45 35.5309 285.519 36.2564 278.56C37.0738 271.864 35.745 265.081 32.4614 259.189C29.3973 253.52 25.5594 248.684 22.69 243.665C20.0004 239.018 18.02 233.995 16.8144 228.763C15.0944 221.178 14.9858 213.316 16.4954 205.686C17.0506 202.897 17.8773 200.169 18.9636 197.542C18.9344 197.729 18.8889 197.913 18.8276 198.093L18.3341 199.648C15.4308 209.054 15.1008 219.065 17.3784 228.642C18.5956 233.814 20.5803 238.775 23.2666 243.36C26.1362 248.268 29.9985 253.178 33.1116 258.859C36.4461 264.868 37.7996 271.775 36.9794 278.598C36.2414 285.68 33.8124 292.648 31.4936 299.714C29.1747 306.781 27.0643 313.798 26.7922 320.796C26.6713 327.534 27.5619 334.253 29.4341 340.728C31.0999 346.957 33.1588 352.746 34.912 358.228C36.6357 363.288 38.0209 368.458 39.0584 373.702C40.9867 383.339 40.4058 391.475 39.0098 396.754C38.4654 398.79 37.7308 400.77 36.816 402.669C36.496 403.281 36.2377 403.758 36.0531 404.125C35.9551 404.307 35.8399 404.479 35.7089 404.639Z" fill="#263238"/>
<path d="M26.589 248.611C26.589 248.611 20.7583 229.849 31.3085 218.891C31.3903 218.802 31.4949 218.739 31.6107 218.706C31.7266 218.674 31.8491 218.675 31.9646 218.708C32.0801 218.741 32.1842 218.806 32.2651 218.895C32.3461 218.984 32.4007 219.093 32.4231 219.212C32.9803 222.313 33.6589 231.751 26.589 248.611Z" fill="url(#paint12_linear)"/>
<path d="M30.1557 225.138C30.1336 226.301 29.9957 227.458 29.744 228.593C29.3589 231.043 28.8997 233.775 28.3908 236.863C27.8818 239.95 27.447 242.755 27.0621 245.132C26.9605 246.293 26.7488 247.441 26.4298 248.562C26.3332 247.397 26.3727 246.225 26.5475 245.07C26.7481 242.925 27.1342 239.985 27.668 236.751C28.2017 233.517 28.7716 230.626 29.2417 228.506C29.416 227.352 29.7227 226.222 30.1557 225.138Z" fill="#263238"/>
<path d="M33.3833 292.867C33.3833 292.867 37.0147 273.548 51.4611 268.824C51.575 268.784 51.6976 268.777 51.8152 268.804C51.9328 268.83 52.0408 268.888 52.1271 268.972C52.2134 269.056 52.2746 269.163 52.3039 269.28C52.3331 269.397 52.3293 269.52 52.2928 269.634C51.3551 272.598 47.5255 281.267 33.3833 292.867Z" fill="url(#paint13_linear)"/>
<path d="M47.5165 273.779C46.9538 274.797 46.2908 275.756 45.5374 276.642C44.0872 278.575 42.3668 280.827 40.4742 283.323L35.3865 290.016C34.7511 290.99 34.0271 291.903 33.2239 292.744C33.6818 291.668 34.2639 290.649 34.9583 289.708C36.1876 287.909 37.8471 285.486 39.8747 282.88C41.9022 280.274 43.7331 277.986 45.1214 276.323C45.819 275.385 46.6227 274.531 47.5165 273.779Z" fill="#263238"/>
<path d="M29.3838 341.329C29.3838 341.329 27.2435 321.79 39.6886 313.041C39.7866 312.971 39.9023 312.929 40.0227 312.921C40.143 312.912 40.2633 312.938 40.3701 312.994C40.4769 313.05 40.5659 313.135 40.6271 313.239C40.6884 313.343 40.7195 313.462 40.7169 313.583C40.6735 316.72 39.5385 326.117 29.3838 341.329Z" fill="url(#paint14_linear)"/>
<path d="M37.3598 318.955C37.1243 320.096 36.7687 321.209 36.2989 322.274C35.4608 324.54 34.4871 327.172 33.3901 330.136L30.5181 337.998C30.212 339.116 29.7993 340.203 29.2858 341.243C29.4179 340.082 29.6793 338.94 30.065 337.837C30.6699 335.768 31.6072 332.939 32.7534 329.877C33.8996 326.816 35.0206 324.061 35.8703 322.09C36.2466 320.992 36.7463 319.94 37.3598 318.955Z" fill="#263238"/>
<path d="M40.1513 390.127C40.1513 390.127 38.7098 370.516 51.4602 362.234C51.5599 362.165 51.6767 362.126 51.7974 362.121C51.918 362.115 52.0379 362.143 52.1435 362.202C52.249 362.261 52.3361 362.348 52.3949 362.453C52.4536 362.559 52.4818 362.679 52.4762 362.799C52.3103 365.924 50.8445 375.272 40.1513 390.127Z" fill="url(#paint15_linear)"/>
<path d="M48.9234 368.085C48.6269 369.219 48.2139 370.319 47.6909 371.367C46.7671 373.596 45.6953 376.265 44.5006 379.106L41.3347 386.869C41.0112 387.949 40.5907 388.999 40.078 390.003C40.2452 388.849 40.5479 387.719 40.9798 386.635C41.6458 384.59 42.6934 381.81 43.9498 378.786C45.2062 375.762 46.4129 373.043 47.3361 371.109C47.7525 370.046 48.2848 369.032 48.9234 368.085Z" fill="#263238"/>
<path d="M18.1923 232.123C18.1923 232.123 0.797116 222.993 0.486023 207.784C0.480935 207.663 0.509617 207.544 0.568848 207.438C0.628078 207.333 0.715507 207.246 0.821308 207.188C0.927108 207.13 1.04709 207.102 1.16775 207.108C1.28842 207.114 1.405 207.154 1.50437 207.223C4.08641 209.017 11.2426 215.197 18.1923 232.123Z" fill="url(#paint16_linear)"/>
<path d="M4.09033 213.013C4.90259 213.845 5.62751 214.758 6.25373 215.738L11.1414 222.537L16.0292 229.325C16.774 230.216 17.4365 231.173 18.0085 232.184C17.0885 231.445 16.2666 230.59 15.5628 229.642C14.1814 227.997 12.3604 225.641 10.4542 222.977C8.54804 220.314 6.88655 217.847 5.72615 216.031C5.06753 215.091 4.51869 214.078 4.09033 213.013Z" fill="#263238"/>
<path d="M36.8085 272.469C36.8085 272.469 18.8963 264.417 17.6537 249.255C17.6438 249.135 17.6669 249.016 17.7206 248.909C17.7743 248.802 17.8564 248.712 17.9579 248.649C18.0594 248.586 18.1764 248.552 18.2959 248.551C18.4154 248.55 18.5329 248.582 18.6354 248.644C21.3282 250.23 28.8529 255.969 36.8085 272.469Z" fill="url(#paint17_linear)"/>
<path d="M21.5771 254.226C22.436 255.01 23.2142 255.878 23.9002 256.817L29.2052 263.311L34.5225 269.78C35.3164 270.606 36.0286 271.506 36.6492 272.469C35.7162 271.747 34.867 270.923 34.1176 270.012C32.638 268.441 30.6819 266.206 28.6162 263.665C26.5504 261.124 24.7417 258.755 23.483 257.024C22.744 256.167 22.1046 255.228 21.5771 254.226Z" fill="#263238"/>
<path d="M26.3951 317.35C26.3951 317.35 14.1111 302.006 19.9252 287.924C19.9694 287.813 20.0435 287.716 20.1393 287.644C20.2352 287.573 20.349 287.529 20.4682 287.518C20.5875 287.506 20.7074 287.528 20.8149 287.581C20.9224 287.634 21.0133 287.715 21.0774 287.817C22.7261 290.528 26.7891 299.054 26.3951 317.35Z" fill="url(#paint18_linear)"/>
<path d="M21.1252 294.189C21.5352 295.276 21.8326 296.401 22.0128 297.549C22.5225 299.915 23.1172 302.686 23.7847 305.751C24.4523 308.816 24.998 311.575 25.569 313.929C25.8945 315.047 26.1177 316.192 26.2358 317.35C25.6938 316.309 25.2844 315.205 25.0172 314.063C24.4088 311.99 23.6918 309.158 23.0123 305.897C22.3329 302.635 21.7998 299.766 21.4611 297.658C21.2226 296.517 21.11 295.354 21.1252 294.189Z" fill="#263238"/>
<path d="M38.4896 370.245C38.4896 370.245 20.7006 361.899 19.7277 346.7C19.7202 346.582 19.7452 346.464 19.7998 346.359C19.8545 346.254 19.9368 346.166 20.0378 346.105C20.1389 346.043 20.2549 346.01 20.3732 346.01C20.4916 346.009 20.6078 346.041 20.7094 346.102C23.3774 347.786 30.8039 353.648 38.4896 370.245Z" fill="url(#paint19_linear)"/>
<path d="M23.553 351.77C24.4022 352.566 25.1682 353.446 25.8391 354.397C27.3302 356.3 29.0903 358.522 31.0337 360.977L36.2405 367.544C37.0236 368.404 37.7272 369.332 38.3425 370.319C37.4323 369.6 36.6112 368.776 35.8967 367.862C34.4539 366.278 32.5347 364.007 30.518 361.429C28.5014 358.852 26.6681 356.47 25.4463 354.715C24.7116 353.804 24.0768 352.817 23.553 351.77Z" fill="#263238"/>
<path d="M74.1062 293.051C74.1231 293.197 74.1227 293.345 74.1053 293.492C74.1046 293.835 74.1037 294.239 74.1027 294.717C74.1001 295.943 73.9743 297.499 73.8843 299.484C73.6427 303.675 73.3117 309.507 72.9171 316.504C71.6766 323.61 67.9835 331.482 63.0654 339.119C59.4873 344.748 55.6897 349.875 52.5056 354.636C49.5624 358.792 46.912 363.147 44.5736 367.671C43.0445 370.74 41.8068 373.946 40.8769 377.246C40.5558 378.41 40.321 379.329 40.1849 379.953C40.1301 380.276 40.0433 380.591 39.9256 380.896C39.9302 380.571 39.9678 380.247 40.0379 379.928C40.125 379.291 40.3231 378.36 40.5952 377.172C41.434 373.795 42.6153 370.513 44.1208 367.376C46.4082 362.797 49.0266 358.391 51.955 354.193C55.1637 349.396 58.9001 344.269 62.4658 338.676C67.3839 331.064 70.9297 323.314 72.317 316.319C72.8219 309.347 73.2386 303.515 73.5783 299.324C73.7418 297.339 73.88 295.746 73.9682 294.57C73.9693 294.08 74.0682 293.663 74.1056 293.345C74.0953 293.247 74.0955 293.148 74.1062 293.051Z" fill="#263238"/>
<path d="M63.473 337.724C63.473 337.724 71.0481 319.59 61.5877 307.683C61.5144 307.587 61.416 307.514 61.3034 307.471C61.1909 307.428 61.0686 307.417 60.9504 307.44C60.8321 307.463 60.7224 307.518 60.6336 307.599C60.5448 307.681 60.4804 307.785 60.4476 307.901C59.5465 310.938 57.9704 320.31 63.473 337.724Z" fill="url(#paint20_linear)"/>
<path d="M62.0891 314.02C62.4117 315.139 62.6106 316.29 62.6823 317.452C62.9474 319.585 63.2353 322.539 63.4613 325.812C63.6872 329.085 63.7913 332.05 63.7868 334.195C63.8598 335.36 63.7874 336.529 63.5711 337.675C63.3605 336.535 63.2603 335.378 63.272 334.218C63.1178 331.767 62.9276 328.985 62.7259 325.859C62.5241 322.734 62.3218 319.903 62.1675 317.5C62.027 316.345 62.0007 315.18 62.0891 314.02Z" fill="#263238"/>
<g opacity="0.3">
<path opacity="0.3" d="M63.473 337.724C63.473 337.724 71.0481 319.59 61.5877 307.683C61.5144 307.587 61.416 307.514 61.3034 307.471C61.1909 307.428 61.0686 307.417 60.9504 307.44C60.8321 307.463 60.7224 307.518 60.6336 307.599C60.5448 307.681 60.4804 307.785 60.4476 307.901C59.5465 310.938 57.9704 320.31 63.473 337.724Z" fill="black"/>
</g>
<path d="M39.9736 381.401C39.9736 381.401 46.0547 362.724 35.6613 351.624C35.5808 351.535 35.4774 351.471 35.3625 351.438C35.2476 351.404 35.1258 351.403 35.0104 351.435C34.895 351.466 34.7905 351.529 34.7085 351.616C34.6264 351.703 34.57 351.811 34.5454 351.928C33.9384 355.015 33.1343 364.437 39.9736 381.401Z" fill="url(#paint21_linear)"/>
<path d="M36.7266 357.876C37.1407 358.968 37.4302 360.104 37.5895 361.261C38.0263 363.357 38.5594 366.275 39.055 369.524C39.5506 372.772 39.8875 375.714 40.0546 377.859C40.2187 379.016 40.2409 380.189 40.1208 381.352C39.8247 380.228 39.6302 379.079 39.5398 377.919C39.1895 375.468 38.7786 372.734 38.3317 369.632C37.8848 366.531 37.4495 363.736 37.1237 361.345C36.8776 360.205 36.7446 359.043 36.7266 357.876Z" fill="#263238"/>
<g opacity="0.3">
<path opacity="0.3" d="M39.9736 381.401C39.9736 381.401 46.0547 362.724 35.6613 351.624C35.5808 351.535 35.4774 351.471 35.3625 351.438C35.2476 351.404 35.1258 351.403 35.0104 351.435C34.895 351.466 34.7905 351.529 34.7085 351.616C34.6264 351.703 34.57 351.811 34.5454 351.928C33.9384 355.015 33.1343 364.437 39.9736 381.401Z" fill="black"/>
</g>
<path d="M73.054 315.574C73.054 315.574 89.1808 304.333 87.5828 289.207C87.5725 289.087 87.5291 288.972 87.4575 288.875C87.3858 288.779 87.2887 288.704 87.1769 288.659C87.0651 288.614 86.9432 288.602 86.8245 288.622C86.7059 288.643 86.5954 288.696 86.5052 288.776C84.1722 290.952 77.8339 297.912 73.054 315.574Z" fill="url(#paint22_linear)"/>
<g opacity="0.3">
<path opacity="0.3" d="M73.054 315.574C73.054 315.574 89.1808 304.333 87.5828 289.207C87.5725 289.087 87.5291 288.972 87.4575 288.875C87.3858 288.779 87.2887 288.704 87.1769 288.659C87.0651 288.614 86.9432 288.602 86.8245 288.622C86.7059 288.643 86.5954 288.696 86.5052 288.776C84.1722 290.952 77.8339 297.912 73.054 315.574Z" fill="black"/>
</g>
<path d="M84.6662 294.85C84.3386 295.965 83.8884 297.041 83.3237 298.058C82.4004 300.004 81.0591 302.649 79.4966 305.538C77.9341 308.426 76.4336 310.985 75.2656 312.796C74.7068 313.819 74.0168 314.765 73.213 315.61C73.6574 314.536 74.1968 313.504 74.825 312.525L78.8478 305.181L82.8585 297.836C83.3567 296.781 83.9625 295.78 84.6662 294.85Z" fill="#263238"/>
<path d="M46.4956 362.885C46.4956 362.885 65.8771 359.898 71.1524 345.62C71.196 345.508 71.2073 345.385 71.1852 345.266C71.163 345.148 71.1082 345.038 71.027 344.948C70.9457 344.859 70.8412 344.794 70.7251 344.761C70.609 344.728 70.486 344.728 70.3699 344.761C67.3411 345.612 58.5468 349.135 46.4956 362.885Z" fill="url(#paint23_linear)"/>
<g opacity="0.3">
<path opacity="0.3" d="M46.4956 362.885C46.4956 362.885 65.8771 359.898 71.1524 345.62C71.196 345.508 71.2073 345.385 71.1852 345.266C71.163 345.148 71.1082 345.038 71.027 344.948C70.9457 344.859 70.8412 344.794 70.7251 344.761C70.609 344.728 70.486 344.728 70.3699 344.761C67.3411 345.612 58.5468 349.135 46.4956 362.885Z" fill="black"/>
</g>
<path d="M66.0463 349.396C65.2617 350.248 64.3892 351.014 63.4434 351.683C61.7616 353.027 59.3927 354.811 56.7171 356.705C54.0415 358.599 51.5625 360.248 49.7341 361.372C48.7727 362.036 47.7346 362.581 46.6424 362.995C47.5107 362.223 48.4474 361.532 49.4409 360.93L56.3016 356.116L63.138 351.228C64.0413 350.519 65.016 349.905 66.0463 349.396Z" fill="#263238"/>
<path d="M27.9028 398.569L22.1607 436.67L57.4551 436.745L52.9643 398.622L27.9028 398.569Z" fill="#455A64"/>
<path d="M54.3489 410.439C54.3484 410.647 47.9755 410.793 40.1078 410.777C32.2401 410.76 25.88 410.587 25.8805 410.379C30.6147 410.026 35.3637 409.913 40.1093 410.041C44.8595 409.933 49.6121 410.066 54.3489 410.439Z" fill="#263238"/>
<path d="M55.0409 413.442C55.0405 413.638 48.4592 413.796 40.3341 413.779C32.209 413.762 25.6285 413.576 25.6289 413.38C25.6293 413.184 32.2106 413.027 40.3357 413.044C48.4607 413.061 55.0412 413.271 55.0409 413.442Z" fill="#263238"/>
<defs>
<linearGradient id="paint0_linear" x1="141.727" y1="160.6" x2="351.501" y2="161.042" gradientUnits="userSpaceOnUse">
<stop stop-color="#FE2D2D"/>
<stop offset="1" stop-color="#ED2F1C"/>
</linearGradient>
<linearGradient id="paint1_linear" x1="132.765" y1="380.051" x2="344.557" y2="380.497" gradientUnits="userSpaceOnUse">
<stop stop-color="#FE2D2D"/>
<stop offset="1" stop-color="#ED2F1C"/>
</linearGradient>
<linearGradient id="paint2_linear" x1="241.304" y1="293.679" x2="248.412" y2="293.694" gradientUnits="userSpaceOnUse">
<stop stop-color="#FE2D2D"/>
<stop offset="1" stop-color="#ED2F1C"/>
</linearGradient>
<linearGradient id="paint3_linear" x1="296.236" y1="317.27" x2="419.612" y2="317.53" gradientUnits="userSpaceOnUse">
<stop stop-color="#FE2D2D"/>
<stop offset="1" stop-color="#ED2F1C"/>
</linearGradient>
<linearGradient id="paint4_linear" x1="287.359" y1="315.505" x2="374.198" y2="315.688" gradientUnits="userSpaceOnUse">
<stop stop-color="#FE2D2D"/>
<stop offset="1" stop-color="#ED2F1C"/>
</linearGradient>
<linearGradient id="paint5_linear" x1="433.952" y1="427.343" x2="486.236" y2="427.453" gradientUnits="userSpaceOnUse">
<stop stop-color="#FE2D2D"/>
<stop offset="1" stop-color="#ED2F1C"/>
</linearGradient>
<linearGradient id="paint6_linear" x1="360.913" y1="421.899" x2="414.845" y2="422.013" gradientUnits="userSpaceOnUse">
<stop stop-color="#FE2D2D"/>
<stop offset="1" stop-color="#ED2F1C"/>
</linearGradient>
<linearGradient id="paint7_linear" x1="409.235" y1="374.31" x2="448.978" y2="374.394" gradientUnits="userSpaceOnUse">
<stop stop-color="#FE2D2D"/>
<stop offset="1" stop-color="#ED2F1C"/>
</linearGradient>
<linearGradient id="paint8_linear" x1="448.981" y1="355.857" x2="460.917" y2="355.882" gradientUnits="userSpaceOnUse">
<stop stop-color="#FE2D2D"/>
<stop offset="1" stop-color="#ED2F1C"/>
</linearGradient>
<linearGradient id="paint9_linear" x1="449.34" y1="353.978" x2="455.276" y2="353.991" gradientUnits="userSpaceOnUse">
<stop stop-color="#FE2D2D"/>
<stop offset="1" stop-color="#ED2F1C"/>
</linearGradient>
<linearGradient id="paint10_linear" x1="338.642" y1="335.454" x2="464.39" y2="335.719" gradientUnits="userSpaceOnUse">
<stop stop-color="#FE2D2D"/>
<stop offset="1" stop-color="#ED2F1C"/>
</linearGradient>
<linearGradient id="paint11_linear" x1="333.161" y1="394.64" x2="448.175" y2="394.883" gradientUnits="userSpaceOnUse">
<stop stop-color="#FE2D2D"/>
<stop offset="1" stop-color="#ED2F1C"/>
</linearGradient>
<linearGradient id="paint12_linear" x1="24.9887" y1="233.638" x2="32.7254" y2="233.655" gradientUnits="userSpaceOnUse">
<stop stop-color="#FE2D2D"/>
<stop offset="1" stop-color="#ED2F1C"/>
</linearGradient>
<linearGradient id="paint13_linear" x1="33.4087" y1="280.808" x2="52.2993" y2="280.848" gradientUnits="userSpaceOnUse">
<stop stop-color="#FE2D2D"/>
<stop offset="1" stop-color="#ED2F1C"/>
</linearGradient>
<linearGradient id="paint14_linear" x1="29.2664" y1="327.112" x2="40.6885" y2="327.136" gradientUnits="userSpaceOnUse">
<stop stop-color="#FE2D2D"/>
<stop offset="1" stop-color="#ED2F1C"/>
</linearGradient>
<linearGradient id="paint15_linear" x1="40.1279" y1="376.111" x2="52.4488" y2="376.137" gradientUnits="userSpaceOnUse">
<stop stop-color="#FE2D2D"/>
<stop offset="1" stop-color="#ED2F1C"/>
</linearGradient>
<linearGradient id="paint16_linear" x1="0.460498" y1="219.596" x2="18.2186" y2="219.633" gradientUnits="userSpaceOnUse">
<stop stop-color="#FE2D2D"/>
<stop offset="1" stop-color="#ED2F1C"/>
</linearGradient>
<linearGradient id="paint17_linear" x1="17.6277" y1="260.489" x2="36.8336" y2="260.53" gradientUnits="userSpaceOnUse">
<stop stop-color="#FE2D2D"/>
<stop offset="1" stop-color="#ED2F1C"/>
</linearGradient>
<linearGradient id="paint18_linear" x1="18.3492" y1="302.422" x2="26.4483" y2="302.439" gradientUnits="userSpaceOnUse">
<stop stop-color="#FE2D2D"/>
<stop offset="1" stop-color="#ED2F1C"/>
</linearGradient>
<linearGradient id="paint19_linear" x1="19.7023" y1="358.107" x2="38.5151" y2="358.146" gradientUnits="userSpaceOnUse">
<stop stop-color="#FE2D2D"/>
<stop offset="1" stop-color="#ED2F1C"/>
</linearGradient>
<linearGradient id="paint20_linear" x1="59.512" y1="322.57" x2="66.3442" y2="322.585" gradientUnits="userSpaceOnUse">
<stop stop-color="#FE2D2D"/>
<stop offset="1" stop-color="#ED2F1C"/>
</linearGradient>
<linearGradient id="paint21_linear" x1="34.1366" y1="366.399" x2="41.7477" y2="366.415" gradientUnits="userSpaceOnUse">
<stop stop-color="#FE2D2D"/>
<stop offset="1" stop-color="#ED2F1C"/>
</linearGradient>
<linearGradient id="paint22_linear" x1="73.0824" y1="302.079" x2="87.6714" y2="302.109" gradientUnits="userSpaceOnUse">
<stop stop-color="#FE2D2D"/>
<stop offset="1" stop-color="#ED2F1C"/>
</linearGradient>
<linearGradient id="paint23_linear" x1="46.5148" y1="353.785" x2="71.1784" y2="353.837" gradientUnits="userSpaceOnUse">
<stop stop-color="#FE2D2D"/>
<stop offset="1" stop-color="#ED2F1C"/>
</linearGradient>
</defs>
</svg>
