<svg width="40" height="40" viewBox="0 0 40 40" fill="none" xmlns="http://www.w3.org/2000/svg">
<circle cx="20" cy="20" r="19" stroke="url(#paint0_linear)" stroke-width="2"/>
<g clip-path="url(#clip0)">
<path d="M28.7778 16.9907C28.7778 18.1635 28.6157 19.1666 28.2917 19.9999C27.9676 20.8333 27.4969 21.4737 26.8796 21.9212C26.2623 22.3688 25.6451 22.6928 25.0278 22.8935C24.4105 23.0941 23.6852 23.2407 22.8519 23.3333C23.4383 23.8271 23.7315 24.6141 23.7315 25.6944V29.861H17.2963V26.8518C16.8025 26.9444 16.3472 26.9907 15.9306 26.9907C15.5139 26.9907 15.159 26.9521 14.8657 26.8749C14.5725 26.7978 14.3102 26.6975 14.0787 26.574C13.8472 26.4506 13.662 26.3194 13.5231 26.1805C13.3843 26.0416 13.2685 25.9104 13.1759 25.787C13.0833 25.6635 13.0216 25.5555 12.9907 25.4629L12.9444 25.324C12.7593 24.8919 12.5509 24.5215 12.3194 24.2129C12.088 23.9043 11.8951 23.7036 11.7407 23.611L11.5093 23.4722C11.1698 23.1944 11 23.0015 11 22.8935C11 22.7854 11.108 22.716 11.3241 22.6851H11.6019C11.9722 22.716 12.3272 22.8394 12.6667 23.0555C13.0062 23.2715 13.2377 23.4876 13.3611 23.7036L13.5926 23.9814C14.4259 25.432 15.6759 25.787 17.3426 25.0462C17.4352 24.3055 17.713 23.7345 18.1759 23.3333C17.3426 23.2407 16.6173 23.0941 16 22.8935C15.3827 22.6928 14.7731 22.3688 14.1713 21.9212C13.5694 21.4737 13.0988 20.8333 12.7593 19.9999C12.4198 19.1666 12.25 18.1635 12.25 16.9907C12.25 15.6635 12.6975 14.5215 13.5926 13.5648C13.1914 12.5462 13.2377 11.4043 13.7315 10.1388C13.8241 10.1697 13.9475 10.162 14.1019 10.1157C14.2562 10.0694 14.642 10.162 15.2593 10.3935C15.8765 10.6249 16.5556 10.9876 17.2963 11.4814C18.3148 11.2036 19.3951 11.0493 20.537 11.0185C21.6481 11.0493 22.7284 11.2036 23.7778 11.4814C24.4877 10.9876 25.1435 10.6327 25.7454 10.4166C26.3472 10.2006 26.7562 10.0925 26.9722 10.0925L27.2963 10.1388C27.821 11.4043 27.8673 12.5462 27.4352 13.5648C28.3302 14.5215 28.7778 15.6635 28.7778 16.9907ZM12.4815 23.2638C12.5123 23.1867 12.4738 23.1249 12.3657 23.0786C12.2577 23.0323 12.1883 23.0478 12.1574 23.1249C12.1265 23.2021 12.1651 23.2638 12.2731 23.3101C12.3812 23.3564 12.4506 23.341 12.4815 23.2638ZM13.0139 23.8425C13.091 23.7808 13.0756 23.6959 12.9676 23.5879C12.8596 23.4799 12.767 23.4567 12.6898 23.5185C12.6127 23.5802 12.6281 23.6651 12.7361 23.7731C12.8441 23.8811 12.9367 23.9043 13.0139 23.8425ZM13.5 24.5833C13.5926 24.5215 13.5926 24.4212 13.5 24.2823C13.4074 24.1435 13.3148 24.1049 13.2222 24.1666C13.1296 24.2283 13.1296 24.3286 13.2222 24.4675C13.3148 24.6064 13.4074 24.645 13.5 24.5833ZM14.2176 25.324C14.2948 25.2314 14.2716 25.1157 14.1481 24.9768C14.0247 24.8379 13.9167 24.8148 13.8241 24.9073C13.7315 24.9999 13.7546 25.1157 13.8935 25.2546C14.0324 25.3935 14.1404 25.4166 14.2176 25.324ZM15.1667 25.7175C15.1975 25.6095 15.1281 25.5246 14.9583 25.4629C14.7886 25.4012 14.6883 25.432 14.6574 25.5555C14.6265 25.6789 14.696 25.7638 14.8657 25.8101C15.0355 25.8564 15.1358 25.8256 15.1667 25.7175ZM15.9537 25.9722C16.1389 25.9722 16.2315 25.9104 16.2315 25.787C16.2315 25.6635 16.1389 25.6018 15.9537 25.6018C15.7685 25.6018 15.6759 25.6635 15.6759 25.787C15.6759 25.9104 15.7685 25.9722 15.9537 25.9722ZM16.9722 25.8796C17.0648 25.8487 17.1343 25.8101 17.1806 25.7638C17.2269 25.7175 17.2346 25.6789 17.2037 25.6481C17.2037 25.4938 17.1111 25.432 16.9259 25.4629C16.8333 25.4938 16.7639 25.5323 16.7176 25.5786C16.6713 25.6249 16.6636 25.6789 16.6944 25.7407C16.6944 25.8641 16.787 25.9104 16.9722 25.8796Z" fill="white"/>
</g>
<defs>
<linearGradient id="paint0_linear" x1="0" y1="20" x2="40" y2="20" gradientUnits="userSpaceOnUse">
<stop stop-color="#FE2D2D"/>
<stop offset="1" stop-color="#ED2F1C"/>
</linearGradient>
<clipPath id="clip0">
<rect width="17.7778" height="20" fill="white" transform="translate(11 10)"/>
</clipPath>
</defs>
</svg>
