<?xml version="1.0" encoding="UTF-8"?>
<svg xmlns="http://www.w3.org/2000/svg" xmlns:xlink="http://www.w3.org/1999/xlink" viewBox="0 0 240 240" width="240px" height="240px">
<g id="surface4034524">
<path style=" stroke:none;fill-rule:nonzero;fill:rgb(3.137255%,39.607844%,65.490198%);fill-opacity:1;" d="M 143.363281 14.4375 C 142.855469 14.511719 142.351562 14.664062 141.863281 14.886719 C 137.738281 16.929688 133.050781 23.007812 132.148438 24.207031 C 132.09375 24.28125 132.039062 24.355469 132 24.429688 C 127.367188 31.367188 124.894531 39.488281 124.800781 47.945312 C 124.742188 54.28125 125.980469 60.5625 128.492188 66.617188 C 134.34375 80.664062 146.492188 92.289062 160.949219 97.726562 C 161.4375 97.894531 161.90625 98.0625 162.75 98.363281 C 162.824219 98.398438 163.539062 98.625 163.648438 98.644531 L 164.175781 98.832031 C 164.925781 99.074219 165.695312 99.320312 166.445312 99.46875 C 170.25 100.238281 173.960938 100.667969 177.449219 100.78125 C 178.050781 100.78125 178.648438 100.800781 179.25 100.800781 C 205.554688 100.800781 215.757812 82.238281 219.148438 76.050781 C 219.488281 75.449219 219.730469 74.960938 219.957031 74.664062 C 219.957031 74.644531 219.957031 74.644531 219.976562 74.625 C 221.457031 72.429688 220.894531 69.449219 218.699219 67.949219 C 216.523438 66.46875 213.542969 67.03125 212.042969 69.226562 L 212.023438 69.226562 C 205.011719 79.554688 193.011719 82.6875 176.382812 78.5625 C 175.144531 78.261719 173.792969 77.792969 172.59375 77.34375 C 171.019531 76.78125 169.445312 76.125 167.980469 75.414062 C 165.074219 73.96875 162.335938 72.242188 159.863281 70.332031 C 145.238281 58.988281 139.519531 35.382812 148.070312 21.75 C 149.210938 19.929688 149.007812 17.570312 147.5625 15.976562 C 146.476562 14.773438 144.898438 14.230469 143.363281 14.4375 Z M 100.835938 24 C 99.75 23.980469 98.644531 24.335938 97.742188 25.085938 C 90.488281 30.992188 83.0625 40.667969 82.742188 41.0625 C 82.707031 41.136719 82.667969 41.195312 82.613281 41.269531 C 69.488281 60.375 68.492188 87.5625 80.101562 110.53125 C 81.917969 114.167969 83.980469 117.636719 86.175781 120.824219 L 86.832031 121.761719 C 88.6875 124.480469 90.769531 127.554688 93.429688 129.957031 C 94.351562 131.007812 95.34375 132.019531 96.320312 132.992188 L 96.789062 133.480469 L 97.179688 133.875 C 98.175781 134.832031 99.1875 135.804688 100.238281 136.742188 L 100.257812 136.742188 C 100.332031 136.855469 100.445312 136.929688 100.539062 137.023438 C 101.71875 138.074219 102.917969 139.070312 104.511719 140.324219 L 104.945312 140.644531 C 106.179688 141.636719 107.4375 142.574219 108.730469 143.492188 C 108.863281 143.585938 108.992188 143.679688 109.125 143.773438 C 109.574219 144.074219 110.023438 144.355469 110.476562 144.675781 L 110.925781 144.976562 L 111.449219 145.3125 C 112.40625 145.949219 113.34375 146.53125 114.675781 147.300781 C 115.539062 147.824219 116.457031 148.351562 117.054688 148.648438 C 117.320312 148.800781 117.601562 148.949219 118.257812 149.304688 L 119.71875 150.074219 C 119.792969 150.113281 120.132812 150.261719 120.207031 150.300781 C 121.164062 150.789062 122.15625 151.257812 123.148438 151.707031 L 124.667969 152.382812 C 125.664062 152.8125 126.675781 153.226562 127.914062 153.695312 L 128.476562 153.898438 C 128.511719 153.9375 128.980469 154.105469 129.019531 154.125 C 129.917969 154.445312 130.835938 154.761719 131.757812 155.0625 L 133.855469 155.757812 C 134.90625 156.113281 136.125 156.523438 137.457031 156.75 C 144 157.835938 150.355469 158.398438 156.375 158.398438 C 157.085938 158.398438 157.800781 158.382812 158.492188 158.382812 C 211.480469 157.21875 225.261719 112.199219 225.394531 111.75 C 226.050781 109.480469 224.980469 107.0625 222.84375 106.050781 C 220.707031 105.039062 218.15625 105.75 216.824219 107.699219 C 203.398438 127.3125 178.011719 135.601562 152.15625 128.773438 C 150.957031 128.476562 149.792969 128.136719 148.351562 127.667969 C 148.105469 127.59375 147.898438 127.519531 147.507812 127.367188 C 146.664062 127.105469 145.835938 126.824219 144.898438 126.46875 L 143.570312 125.960938 C 142.800781 125.664062 142.03125 125.363281 141.09375 124.949219 L 140.476562 124.667969 C 139.332031 124.179688 138.226562 123.636719 137.230469 123.148438 L 134.492188 121.726562 C 133.875 121.425781 133.332031 121.085938 132.488281 120.582031 L 132.019531 120.320312 L 131.550781 120.039062 C 130.855469 119.625 130.164062 119.195312 129.523438 118.742188 L 129.074219 118.460938 C 129.039062 118.445312 128.664062 118.179688 128.625 118.144531 C 128.0625 117.789062 127.519531 117.429688 126.992188 117.09375 C 125.832031 116.269531 124.6875 115.40625 123.355469 114.355469 L 122.832031 113.925781 C 110.457031 104.042969 101.304688 90.84375 97.011719 76.6875 C 93.019531 63.695312 95.980469 46.6875 104.945312 31.199219 C 106.105469 29.195312 105.675781 26.644531 103.894531 25.144531 C 103.011719 24.394531 101.925781 24 100.835938 24 Z M 48.019531 38.398438 C 46.875 38.398438 45.710938 38.8125 44.792969 39.636719 C 35.625 47.867188 28.761719 58.539062 28.011719 59.757812 C 8.398438 88.3125 12.1875 132.695312 25.648438 159.824219 C 25.914062 160.386719 26.195312 160.929688 26.476562 161.476562 L 26.664062 161.773438 C 26.90625 162.320312 27.1875 162.882812 27.28125 162.992188 C 27.429688 163.351562 27.65625 163.742188 27.75 163.855469 C 27.976562 164.324219 28.199219 164.738281 28.613281 165.449219 L 30.148438 168.09375 C 30.375 168.449219 30.601562 168.824219 30.675781 168.957031 C 30.976562 169.445312 31.292969 169.949219 31.613281 170.457031 L 32.363281 171.65625 C 32.585938 172.011719 32.8125 172.332031 32.960938 172.519531 C 33.710938 173.679688 34.460938 174.84375 35.289062 175.949219 C 35.324219 176.007812 35.363281 176.042969 35.398438 176.082031 L 35.699219 176.492188 C 36.375 177.46875 37.070312 178.40625 37.6875 179.175781 L 40.425781 182.644531 C 40.460938 182.679688 40.761719 183.039062 40.78125 183.074219 L 41.175781 183.523438 C 42 184.539062 42.882812 185.550781 43.761719 186.523438 C 43.894531 186.675781 44.023438 186.804688 44.15625 186.957031 C 45 187.875 45.863281 188.792969 46.761719 189.75 L 47.625 190.574219 C 48.335938 191.324219 49.050781 192.054688 49.800781 192.75 C 49.800781 192.769531 50.15625 193.105469 50.15625 193.105469 L 50.90625 193.800781 C 51.804688 194.664062 52.742188 195.523438 53.457031 196.125 C 53.492188 196.179688 54.167969 196.761719 54.226562 196.800781 C 55.105469 197.585938 55.988281 198.335938 56.886719 199.070312 L 61.480469 202.707031 C 62.25 203.269531 63.039062 203.832031 63.9375 204.488281 C 64.238281 204.710938 64.554688 204.9375 64.875 205.144531 C 65.007812 205.257812 65.15625 205.367188 65.25 205.425781 L 68.699219 207.730469 C 69.957031 208.554688 71.210938 209.324219 72.75 210.242188 L 73.574219 210.710938 C 74.53125 211.273438 75.507812 211.835938 76.425781 212.324219 C 76.96875 212.625 77.511719 212.886719 77.980469 213.132812 C 78.636719 213.488281 79.351562 213.882812 80.4375 214.40625 C 80.53125 214.460938 81.300781 214.835938 81.394531 214.875 C 82.480469 215.417969 83.585938 215.925781 84.976562 216.542969 C 84.976562 216.5625 85.425781 216.769531 85.425781 216.769531 C 86.699219 217.3125 87.9375 217.835938 89.570312 218.492188 C 89.832031 218.605469 90.09375 218.699219 90.148438 218.71875 C 91.3125 219.167969 92.53125 219.617188 93.523438 219.976562 C 93.617188 220.011719 94.125 220.21875 94.21875 220.257812 C 95.550781 220.707031 96.863281 221.136719 98.550781 221.664062 C 98.832031 221.757812 99.132812 221.851562 99.167969 221.851562 L 100.125 222.148438 C 101.289062 222.507812 102.449219 222.882812 103.707031 223.125 C 112.632812 224.757812 121.351562 225.601562 129.601562 225.601562 L 129.617188 225.601562 C 198.375 225.601562 220.273438 170.269531 220.5 169.707031 C 221.34375 167.476562 220.425781 164.960938 218.324219 163.800781 C 216.261719 162.65625 213.636719 163.199219 212.175781 165.09375 C 194.53125 188.324219 161.25 196.949219 123.148438 188.195312 C 122.230469 187.96875 121.292969 187.707031 120.375 187.425781 L 118.574219 186.882812 C 117.355469 186.507812 116.136719 186.09375 114.957031 185.679688 C 114.9375 185.679688 114.394531 185.476562 114.394531 185.476562 C 113.34375 185.117188 112.292969 184.707031 111.375 184.351562 L 110.324219 183.9375 C 109.164062 183.46875 108 182.980469 106.875 182.476562 L 106.21875 182.195312 C 105.207031 181.726562 104.230469 181.273438 103.257812 180.789062 C 103.179688 180.75 102.414062 180.375 102.335938 180.355469 C 101.664062 180.019531 100.988281 179.664062 100.125 179.195312 L 96.207031 177.09375 C 95.8125 176.832031 95.398438 176.585938 95.007812 176.382812 C 93.824219 175.648438 92.605469 174.917969 91.40625 174.148438 C 91.125 173.980469 90.882812 173.792969 90.414062 173.476562 C 89.585938 172.949219 88.78125 172.40625 87.601562 171.582031 L 87.132812 171.242188 C 86.324219 170.679688 85.539062 170.082031 84.882812 169.59375 C 84.46875 169.292969 84.054688 168.957031 83.382812 168.449219 C 82.78125 167.980469 82.179688 167.53125 81.617188 167.082031 L 80.570312 166.21875 C 79.6875 165.507812 78.863281 164.757812 78 164.023438 C 77.886719 163.914062 77.792969 163.835938 77.664062 163.742188 C 76.707031 162.863281 75.730469 161.980469 74.570312 160.875 L 71.175781 157.5 C 70.351562 156.65625 69.523438 155.792969 68.585938 154.761719 C 67.726562 153.804688 66.898438 152.851562 65.792969 151.539062 L 63.769531 149.0625 C 63.523438 148.707031 63.261719 148.351562 62.945312 147.976562 C 62.25 147.039062 61.554688 146.117188 60.863281 145.144531 C 42.1875 119.417969 37.3125 65.71875 51.863281 46.050781 C 53.324219 44.082031 53.0625 41.304688 51.226562 39.636719 C 50.324219 38.8125 49.164062 38.398438 48.019531 38.398438 Z M 48.019531 38.398438 "/>
</g>
</svg>
